<svg class="animated" id="freepik_stories-diving-with-sharks" xmlns="http://www.w3.org/2000/svg" viewBox="0 0 500 500" version="1.1" xmlns:xlink="http://www.w3.org/1999/xlink" xmlns:svgjs="http://svgjs.com/svgjs"><style>svg#freepik_stories-diving-with-sharks:not(.animated) .animable {opacity: 0;}svg#freepik_stories-diving-with-sharks.animated #freepik--background-complete--inject-60 {animation: 1s 1 forwards cubic-bezier(.36,-0.01,.5,1.38) slideUp;animation-delay: 0s;}svg#freepik_stories-diving-with-sharks.animated #freepik--Character--inject-60 {animation: 1.5s Infinite  linear floating;animation-delay: 0s;}svg#freepik_stories-diving-with-sharks.animated #freepik--Shark--inject-60 {animation: 1.5s Infinite  linear floating;animation-delay: 0s;}            @keyframes slideUp {                0% {                    opacity: 0;                    transform: translateY(30px);                }                100% {                    opacity: 1;                    transform: inherit;                }            }                    @keyframes floating {                0% {                    opacity: 1;                    transform: translateY(0px);                }                50% {                    transform: translateY(-10px);                }                100% {                    opacity: 1;                    transform: translateY(0px);                }            }        </style><g id="freepik--background-complete--inject-60" class="animable animator-active" style="transform-origin: 247.694px 238.727px;"><path d="M419.45489,434.2398c5.8596-4.2026,11.7997-8.4816,16.3436-14.2119,4.5441-5.7306,7.59-13.2043,6.6353-20.6083-13.3696,5.9239-24.2656,17.7588-29.47579,32.0158-.25351-17.6191-3.51391-35.1894-9.57881-51.6199-4.8066,7.8251-6.6454,17.4678-5.8498,26.7565,.7955,9.2885,4.1204,18.2257,8.8753,26.0988-8.8604-8.9975-19.1721-16.4055-30.3578-21.8091,7.6878,16.0384,19.3884,27.8364,35.3156,34.268l3.067-.0386c13.4233,.1567,24.2494-6.1294,32.08251-12.0222,3.29919-2.4818,7.39719-6.3305,6.78049-7.5882-11.5282,1.6742-22.8886,4.615-33.8376,8.7591Z" style="fill: rgb(224, 224, 224); transform-origin: 414.701px 412.473px;" id="el8aj7kenhueo" class="animable"></path><path d="M223.17989,441.6522c-.1407-.9639,1.512-19.3336,2.6978-22.5229s28.3524-23.7082,29.9366-22.8338,14.6643,11.5511,16.2332,13.1847,16.0124,32.0414,16.0124,32.0414l-64.88,.1306Z" style="fill: rgb(224, 224, 224); transform-origin: 255.616px 418.96px;" id="elv0v5lhjcdtn" class="animable"></path><path d="M131.1084,377.2511c-2.2138-2.1585-6.224-.9486-7.9931,1.5871-1.769,2.5358-1.9266,5.8216-2.0225,8.912-.2318,7.4698-.4636,14.9395-.6953,22.4093-.0647,2.082-.1473,4.2391-1.0761,6.1036-.9289,1.8646-2.9563,3.3543-5.0039,2.9717-2.291-.4281-3.6247-2.9535-3.7644-5.28-.1398-2.3264,.5606-4.6191,.6988-6.9457,.2763-4.6522-1.6855-9.1118-3.6055-13.3584-2.2568-4.9913-4.7324-10.2465-9.3008-13.269-3.2002-2.1172-7.3396-3.0763-9.5809-6.191-2.4862-3.4551-2.2609-9.0728-6.1286-10.8506-3.9117-1.798-8.3413,2.8954-7.8331,7.1705,.5082,4.2749,4.0672,7.5116,7.6831,9.8481,4.8419,3.1289,10.8705,6.329,11.4993,12.0596,.1839,1.6757-.1534,3.3853,.1196,5.0488,.7039,4.2886,5.0926,6.9477,6.9327,10.885,1.7951,3.8405,.5126,9.0888-3.2469,11.0476-3.7596,1.9588-9.2858-.6758-9.5131-4.909-.0999-1.8607,.7091-3.6502,.8687-5.5068,.5437-6.3235-6.045-10.6433-11.7312-13.4622-2.4418-1.2104-4.9979-2.4486-7.7232-2.4324-2.725,.0163-5.6488,1.7123-6.0998,4.4-.6324,3.7689,3.5039,6.4735,7.1061,7.7494,3.6023,1.2758,7.9396,2.8808,8.6634,6.6333,.573,2.9715-2.1895,5.5713-2.4907,8.5826-1.2518,12.5118,15.6782,9.3632,14.1375,20.2157h32.8698c-2.3084-3.9738-1.4368-10.6426,.2095-14.9332,1.6466-4.2905,4.046-8.3573,4.7774-12.8944,1.2497-7.75-2.5033-16.0453,.357-23.3557,1.6129-4.1221,5.0555-9.1459,1.8862-12.2359Z" style="fill: rgb(224, 224, 224); transform-origin: 97.9657px 401.808px;" id="eloqfifbigjk" class="animable"></path><g id="elr975dvjpgim" class="animable" style="transform-origin: 247.694px 212.26px;"><g id="elm93dkhk8y7j" class="animable" style="transform-origin: 247.694px 200.483px;"><g id="elvm0400zljw" class="animable" style="transform-origin: 247.028px 169.823px;"><path d="M441.61489,307.3216h-180.7461c-3.2324,0-5.8623-2.6298-5.8623-5.8623V38.1859c0-3.2324,2.6299-5.8618,5.8623-5.8618h180.7461c3.2324,0,5.8623,2.6294,5.8623,5.8618V301.4593c0,3.2325-2.6299,5.8623-5.8623,5.8623ZM260.86879,32.5741c-3.0947,0-5.6123,2.5176-5.6123,5.6118V301.4593c0,3.0948,2.5176,5.6123,5.6123,5.6123h180.7461c3.0947,0,5.6123-2.5175,5.6123-5.6123V38.1859c0-3.0942-2.5176-5.6118-5.6123-5.6118h-180.7461Z" style="fill: rgb(224, 224, 224); transform-origin: 351.242px 169.823px;" id="elhqi44a50eq7" class="animable"></path><path d="M233.18719,307.3216H52.4406c-3.2324,0-5.8618-2.6298-5.8618-5.8623V38.1859c0-3.2324,2.6294-5.8618,5.8618-5.8618H233.18719c3.2324,0,5.8623,2.6294,5.8623,5.8618V301.4593c0,3.2325-2.6299,5.8623-5.8623,5.8623ZM52.4406,32.5741c-3.0942,0-5.6118,2.5176-5.6118,5.6118V301.4593c0,3.0948,2.5176,5.6123,5.6118,5.6123H233.18719c3.0947,0,5.6123-2.5175,5.6123-5.6123V38.1859c0-3.0942-2.5176-5.6118-5.6123-5.6118H52.4406Z" style="fill: rgb(224, 224, 224); transform-origin: 142.814px 169.823px;" id="elhoypg1sxw35" class="animable"></path></g><rect x="-2.30549" y="368.391" width="499.99998" height=".25" style="fill: rgb(224, 224, 224); transform-origin: 247.695px 368.516px;" id="el4d1ldmmj7th" class="animable"></rect></g><rect x="49.3669" y="382.6556" width="16.06" height=".25" style="fill: rgb(224, 224, 224); transform-origin: 57.3969px 382.781px;" id="elxdk1nttexsl" class="animable"></rect><rect x="168.0469" y="379.9455" width="53.53" height=".25" style="fill: rgb(224, 224, 224); transform-origin: 194.812px 380.07px;" id="el33fdgd10cmm" class="animable"></rect><rect x="66.4269" y="391.9455" width="36.25" height=".25" style="fill: rgb(224, 224, 224); transform-origin: 84.5519px 392.07px;" id="eljb54ljqomx" class="animable"></rect><rect x="376.04689" y="379.8155" width="43.19" height=".25" style="fill: rgb(224, 224, 224); transform-origin: 397.642px 379.94px;" id="elqlfqxunwyz9" class="animable"></rect><rect x="428.14689" y="379.8155" width="6.33" height=".25" style="fill: rgb(224, 224, 224); transform-origin: 431.312px 379.94px;" id="elj1uiv2uaimk" class="animable"></rect><rect x="313.90689" y="386.0455" width="53.89" height=".25" style="fill: rgb(224, 224, 224); transform-origin: 340.852px 386.171px;" id="eli9hq7zkqohl" class="animable"></rect></g><g id="elgo9p49d1zsr" class="animable" style="transform-origin: 79.6864px 123.859px;"><g id="el7xlg842xm9"><circle cx="70.53083" cy="128.63953" r="8.91158" style="fill: rgb(230, 230, 230); transform-origin: 70.5308px 128.64px; transform: rotate(-76.7175deg);" class="animable"></circle></g><path d="M99.5626,136.9756c0,3.4406-2.7892,6.2298-6.2299,6.2298s-6.2298-2.7892-6.2298-6.2298,2.7892-6.2298,6.2298-6.2298,6.2299,2.7891,6.2299,6.2298Z" style="fill: rgb(230, 230, 230); transform-origin: 93.3328px 136.976px;" id="elc6iy84bsagv" class="animable"></path><path d="M96.7962,115.8863c0,2.4609-1.9949,4.4558-4.4558,4.4558s-4.4557-1.9949-4.4557-4.4558,1.9949-4.4557,4.4557-4.4557,4.4558,1.9949,4.4558,4.4557Z" style="fill: rgb(230, 230, 230); transform-origin: 92.3405px 115.886px;" id="el12aag1t52p1q" class="animable"></path><path d="M82.4057,146.3275c0,1.6366-1.3267,2.9633-2.9633,2.9633-1.6367,0-2.9634-1.3267-2.9634-2.9633s1.3267-2.9634,2.9634-2.9634c1.6366,0,2.9633,1.3268,2.9633,2.9634Z" style="fill: rgb(230, 230, 230); transform-origin: 79.4423px 146.327px;" id="elg1zwwi90fnv" class="animable"></path><path d="M85.3691,101.3909c0,1.6366-1.3268,2.9634-2.9634,2.9634s-2.9633-1.3268-2.9633-2.9634,1.3267-2.9634,2.9633-2.9634,2.9634,1.3268,2.9634,2.9634Z" style="fill: rgb(230, 230, 230); transform-origin: 82.4058px 101.391px;" id="elihy30x9tya" class="animable"></path></g><g id="elslfcsdatzv" class="animable" style="transform-origin: 148.48px 185.924px;"><path d="M141.108,166.042s-7.16-14.4525-6.6296-21.8777c.5304-7.4251,2.5192-20.1539,1.4585-20.2865s-12.4636,1.0607-17.8999,15.5132c-5.4363,14.4525-5.974,20.5381-5.974,20.5381l29.045,6.1129Z" style="fill: rgb(230, 230, 230); transform-origin: 126.586px 144.956px;" id="ela4ng0s77vz" class="animable"></path><path d="M138.546,160.2952c-8.992-2.428-17.5994-4.29-25.544-5.1763-.4163,1.6632-.7532,3.2805-.939,4.8102l28.4568,4.8788-1.9738-4.5127Z" style="fill: rgb(224, 224, 224); transform-origin: 126.291px 159.963px;" id="elqeutc5610ed" class="animable"></path><path d="M106.519,218.6841s-10.7094,28.5181-13.7176,29.2401-4.2115-5.8962-5.0538-11.672,.5809-18.9989,.5809-18.9989l18.1905,1.4308Z" style="fill: rgb(224, 224, 224); transform-origin: 97px 232.616px;" id="el61944ut0sy" class="animable"></path><path d="M273.22209,147.8192s-8.5444-1.6614-23.7346,18.9877c-15.1901,20.6491-8.74249,22.9109-28.9338,21.4686-14.2944-1.021-15.9246-2.1997-15.9246-2.1997l-3.06609-7.2015-6.4499,5.0618s-17.5414-7.0457-41.0387-15.4103c-23.4972-8.3646-27.5313-8.7806-59.5738-8.8393-40.7373-.0746-69.056,17.9985-70.4918,22.5479-.9601,3.0421-1.4241,9.4938,21.5985,16.1395l9.0191,2.1361s-3.0855,2.3735,1.4241,7.1204,41.0609,14.7155,77.6122,11.1553c0,0,34.1778,30.855,50.3173,23.9719l-28.2442-27.7695,18.9877-2.6108s10.9179,9.2565,22.3105,9.7312c0,0-8.4394-10.4456-7.7142-11.3501,0,0,17.9201-3.84,18.6322-3.84,.712,0,10.38949,9.2653,15.66479,4.5095,.6286-.5666-3.32279-7.595-3.32279-7.595,0,0,7.83239-4.5096,13.766-3.5602,5.93369,.9494,14.24079,20.8864,33.94049,27.2948,0,0-13.7661-25.396-11.3926-35.6019s17.8009-39.6368,16.6142-44.1464Z" style="fill: rgb(230, 230, 230); transform-origin: 148.48px 195.773px;" id="elsshtchrm1ri" class="animable"></path><g id="els4ldz1zz5fj" class="animable" style="transform-origin: 111.62px 190.078px;"><path d="M116.9015,181.6783c6.0894,3.8844,7.4496,13.7639,2.3263,18.9631,.8581-6.6332-.0243-12.7061-2.3263-18.9631h0Z" style="fill: rgb(224, 224, 224); transform-origin: 119.642px 191.16px;" id="ellfq5krvi2e" class="animable"></path><path d="M112.0169,181.0028c6.0894,3.8843,7.4496,13.7639,2.3263,18.9631,.8581-6.6332-.0243-12.7062-2.3263-18.9631h0Z" style="fill: rgb(224, 224, 224); transform-origin: 114.757px 190.484px;" id="el9ghgpmgflkq" class="animable"></path><path d="M106.4373,180.2585c6.0894,3.8844,7.4496,13.7639,2.3264,18.9631,.8581-6.6332-.0243-12.7061-2.3264-18.9631h0Z" style="fill: rgb(224, 224, 224); transform-origin: 109.178px 189.74px;" id="elym2nuujulsq" class="animable"></path><path d="M100.8578,179.5142c6.0894,3.8844,7.4495,13.764,2.3263,18.9631,.8581-6.6332-.0243-12.7061-2.3263-18.9631h0Z" style="fill: rgb(224, 224, 224); transform-origin: 103.598px 188.996px;" id="elkcy9eltj7sp" class="animable"></path></g><path d="M56.1648,177.9937c1.3263,0,2.4015,1.0751,2.4015,2.4015,0,1.3262-1.0752,2.4014-2.4015,2.4014s-2.4015-1.0752-2.4015-2.4014c0-1.3264,1.0752-2.4015,2.4015-2.4015Z" style="fill: rgb(224, 224, 224); transform-origin: 56.1648px 180.395px;" id="elcsk7nuwrysr" class="animable"></path><g id="elsgplg6gd4c" class="animable" style="transform-origin: 129.729px 202.805px;"><g id="el3vccl93jcxn"><path d="M29.5301,191.8905c.8881-4.3956,16.8921-8.4989,39.7489-3.5834,24.2343,5.2119,45.9939,16.8008,53.7452,20.6487,2.2253,1.1048,10.6385,9.8299,10.6385,9.8299-36.5513,3.5602-73.1026-6.4084-77.6122-11.1553-4.5095-4.7469-1.4241-7.1204-1.4241-7.1204l-9.0191-2.1361c-7.7012-2.223-12.7716-4.4241-16.0772-6.4834Z" style="fill: rgb(255, 255, 255); opacity: 0.7; transform-origin: 81.5964px 202.805px;" class="animable"></path></g><g id="eld7gt429yc7h"><path d="M155.7358,214.9881l-4.1802-4.3429,18.1979-.6551c1.3527-.0487,2.674,.4142,3.7006,1.2964l1.2694,1.0908-18.9877,2.6108Z" style="fill: rgb(255, 255, 255); opacity: 0.7; transform-origin: 163.14px 212.487px;" class="animable"></path></g><g id="el1v743016k4i"><path d="M189.3198,210.7584s-2.0291-1.6085-1.1254-2.6413,15.2337-3.7439,17.8157-2.7111,1.94191,1.5124,1.94191,1.5124l-18.6322,3.84Z" style="fill: rgb(255, 255, 255); opacity: 0.7; transform-origin: 197.992px 207.967px;" class="animable"></path></g><g id="elr67ie08h1x"><path d="M220.294,203.8329l-1.12281-1.9543,10.7567-1.5389s-8.07989,2.8062-9.63389,3.4932Z" style="fill: rgb(255, 255, 255); opacity: 0.7; transform-origin: 224.55px 202.086px;" class="animable"></path></g></g><path d="M82.581,195.3503c.4728,.02-21.1143-6.6386-36.4561,3.1462l8.5015,2.0135s3.0162-6.2155,27.9546-5.1597Z" style="fill: rgb(230, 230, 230); transform-origin: 64.3568px 196.833px;" id="elqg2dy7hana" class="animable"></path></g><g id="el0hr3ukbs2khu" class="animable" style="transform-origin: 398.011px 172.521px;"><g id="freepik--freepik--fishes-1--inject-2--inject-60" class="animable" style="transform-origin: 398.011px 172.521px;"><path d="M382.64879,171.6186s-5.25179-5.1993-5.9605-4.8072c-.7088,.3922,3.2304,4.4321,3.2131,5.4626-.0171,1.0306-4.3985,3.5504-4.1971,4.2521,.2014,.7018,6.9084-2.7987,6.9084-2.7987l.7829-.7972-.7468-1.3116Z" style="fill: rgb(224, 224, 224); transform-origin: 379.547px 171.705px;" id="eluku3044qswg" class="animable"></path><path d="M408.06369,168.1146s-3.8356-5.8725-4.407-5.4586c-.5715,.414-1.902,5.3637-1.902,5.3637l-1.2602-.0191s-3.7928-3.7028-4.5771-3.2217c-.7843,.4809-.5866,1.9505-.5866,1.9505-3.44879,.6669-6.7643,1.8968-9.8136,3.6407l.8831,1.998-.5961,2.4897s5.9829,2.8978,8.288,3.3515c0,0-.5207,2.0924,.2815,2.1787,.8022,.0862,5.6507-3.1031,5.6507-3.1031l7.6771-7.32,.3622-1.8503Z" style="fill: rgb(224, 224, 224); transform-origin: 396.79px 171.512px;" id="elx6yu5swdqa" class="animable"></path><path d="M408.35249,177.3327s-4.9298,6.1741-5.189,4.9023c-.14549-.9545-.132-1.9265,.0398-2.8766l2.5293-2.3438,2.6199,.3181Z" style="fill: rgb(224, 224, 224); transform-origin: 405.708px 179.711px;" id="elzl01tz81p19" class="animable"></path><path d="M419.39469,172.1807s-12.3511-10.8006-33.7329-.5083c-.9852,.365-2.0714,.3472-3.0442-.0498-.5915,.528-.643,1.4356-.115,2.0271,.0252,.0284,.0515,.0556,.079,.0818,1.1106-.2252,2.2566-.2087,3.3603,.0486,0,0,6.7702,4.0934,19.17411,4.2791,12.404,.1857,15.208-5.1758,15.208-5.1758l-1.79581,.8569,.8665-1.5596Z" style="fill: rgb(230, 230, 230); transform-origin: 401.231px 172.645px;" id="elckx93w0gwcu" class="animable"></path><path d="M382.64879,171.6186c.9727,.3969,2.0589,.4148,3.0441,.0499,21.3819-10.2925,33.733,.5082,33.733,.5082l-.5777,1.0397-36.6817-.5546c.023-.3962,.1954-.769,.4823-1.0432Z" style="fill: rgb(245, 245, 245); transform-origin: 400.796px 170.219px;" id="elaipxrtssuff" class="animable"></path><path d="M412.93739,169.6511s-4.3751,2.8748-.0996,6.5785c0,0-3.3133-1.1541-3.1015-3.6179s3.2011-2.9606,3.2011-2.9606Z" style="fill: rgb(224, 224, 224); transform-origin: 411.332px 172.94px;" id="elr2b486thzr8" class="animable"></path><path d="M414.28969,172.052c.1225,.4769,.4744,.7955,.8522,.6565,.378-.1391,.5338-.5879,.4114-1.0648-.1225-.4769-.47429-.7956-.8431-.6619-.3687,.1335-.54319,.5719-.4205,1.0702Z" style="fill: rgb(224, 224, 224); transform-origin: 414.923px 171.846px;" id="ellkueo97vawk" class="animable"></path></g><path d="M407.48539,171.9706l.3331,2.2115s-5.3298,.6883-5.8896-.0936c-.5598-.7821-4.764-.1363-5.1295-1.0067s10.686-1.1112,10.686-1.1112Z" style="fill: rgb(224, 224, 224); transform-origin: 402.305px 173.216px;" id="el2j6pqy4jsy4" class="animable"></path></g><g id="el8ko2qectj8g" class="animable" style="transform-origin: 67.7889px 290.378px;"><g id="freepik--freepik--fishes-1--inject-2-2--inject-60" class="animable" style="transform-origin: 67.7889px 290.378px;"><path d="M52.4269,289.4749s-5.2518-5.1993-5.9606-4.8071c-.7087,.3921,3.2305,4.432,3.2132,5.4625-.0171,1.0306-4.3985,3.5504-4.1971,4.2521,.2014,.7018,6.9084-2.7987,6.9084-2.7987l.7829-.7972-.7468-1.3116Z" style="fill: rgb(224, 224, 224); transform-origin: 49.3247px 289.561px;" id="elups5y05o05c" class="animable"></path><path d="M77.8418,285.9709s-3.8357-5.8725-4.407-5.4586c-.5716,.414-1.9021,5.3637-1.9021,5.3637l-1.2601-.0191s-3.7928-3.7028-4.5771-3.2217c-.7843,.4809-.5866,1.9505-.5866,1.9505-3.4488,.6669-6.7643,1.8968-9.8136,3.6407l.8831,1.998-.5961,2.4897s5.9829,2.8979,8.288,3.3515c0,0-.5207,2.0924,.2815,2.1787s5.6507-3.1031,5.6507-3.1031l7.6771-7.3199,.3622-1.8504Z" style="fill: rgb(224, 224, 224); transform-origin: 66.5685px 289.369px;" id="el28k2qhncapw" class="animable"></path><path d="M78.1305,295.189s-4.9297,6.1742-5.1889,4.9023c-.1455-.9545-.132-1.9265,.0398-2.8766l2.5292-2.3438,2.6199,.3181Z" style="fill: rgb(224, 224, 224); transform-origin: 75.4861px 297.567px;" id="elcgbo1dl14u7" class="animable"></path><path d="M89.1728,290.037s-12.3511-10.8006-33.733-.5083c-.9851,.365-2.0713,.3472-3.0441-.0498-.5915,.528-.6431,1.4356-.1151,2.0271,.0253,.0284,.0516,.0556,.0791,.0818,1.1105-.2252,2.2566-.2087,3.3603,.0486,0,0,6.7701,4.0934,19.1741,4.2791s15.208-5.1758,15.208-5.1758l-1.7958,.8569,.8665-1.5596Z" style="fill: rgb(230, 230, 230); transform-origin: 71.0091px 290.501px;" id="elcm8lsaa0okh" class="animable"></path><path d="M52.4269,289.4749c.9727,.397,2.0589,.4148,3.044,.0499,21.382-10.2925,33.7331,.5082,33.7331,.5082l-.5777,1.0397-36.6818-.5546c.0231-.3962,.1955-.769,.4824-1.0432Z" style="fill: rgb(245, 245, 245); transform-origin: 70.5742px 288.076px;" id="eleimntlfhqnv" class="animable"></path><path d="M82.7154,287.5074s-4.3751,2.8748-.0995,6.5785c0,0-3.3133-1.1541-3.1015-3.6179,.2117-2.4638,3.201-2.9606,3.201-2.9606Z" style="fill: rgb(224, 224, 224); transform-origin: 81.11px 290.797px;" id="eluxmsep6j80h" class="animable"></path><path d="M84.0678,289.9083c.1224,.4769,.4744,.7955,.8522,.6565,.378-.1391,.5338-.5879,.4114-1.0648-.1226-.4769-.4744-.7956-.8431-.6619-.3687,.1335-.5433,.5719-.4205,1.0702Z" style="fill: rgb(224, 224, 224); transform-origin: 84.7006px 289.703px;" id="elnqpwdstfo9" class="animable"></path></g><path d="M77.2635,289.8269l.3331,2.2115s-5.3298,.6883-5.8897-.0936c-.5597-.7821-4.7639-.1363-5.1294-1.0067-.3656-.8704,10.686-1.1112,10.686-1.1112Z" style="fill: rgb(224, 224, 224); transform-origin: 72.0826px 291.073px;" id="els9v3dvw26ze" class="animable"></path></g><g id="eldcm0z1ifwdb" class="animable" style="transform-origin: 434.927px 138.835px;"><g id="freepik--freepik--fishes-1--inject-2-3--inject-60" class="animable" style="transform-origin: 434.927px 138.835px;"><path d="M417.55259,137.8142s-5.9397-5.8804-6.7413-5.4369c-.8017,.4436,3.6536,5.0126,3.634,6.1782-.0194,1.1656-4.9746,4.0154-4.7469,4.8091,.2278,.7936,7.8133-3.1654,7.8133-3.1654l.8855-.9016-.8446-1.4834Z" style="fill: rgb(224, 224, 224); transform-origin: 414.044px 137.912px;" id="elosvwzlcrsjp" class="animable"></path><path d="M446.29669,133.8512s-4.3381-6.6418-4.9844-6.1737c-.6464,.4683-2.1511,6.0664-2.1511,6.0664l-1.4253-.0216s-4.2896-4.1879-5.1766-3.6438c-.887,.544-.6634,2.206-.6634,2.206-3.9006,.7543-7.6504,2.1453-11.0991,4.1176l.9987,2.2598-.6742,2.8158s6.7666,3.2774,9.37371,3.7906c0,0-.58891,2.3664,.31829,2.464,.9073,.0976,6.391-3.5095,6.391-3.5095l8.68271-8.2789,.40969-2.0927Z" style="fill: rgb(224, 224, 224); transform-origin: 433.547px 137.694px;" id="el6lea5r3fc79" class="animable"></path><path d="M446.62319,144.2768s-5.5755,6.9829-5.8686,5.5445c-.16459-1.0796-.1493-2.1789,.045-3.2535l2.8605-2.6508,2.9631,.3598Z" style="fill: rgb(224, 224, 224); transform-origin: 443.632px 146.967px;" id="elobprp4itk5" class="animable"></path><path d="M459.11189,138.45s-13.969-12.2155-38.1517-.5749c-1.11419,.4128-2.3427,.3926-3.4429-.0563-.669,.5971-.72729,1.6236-.1301,2.2926,.0286,.032,.0583,.0629,.0893,.0924,1.2561-.2546,2.5523-.236,3.8006,.055,0,0,7.65691,4.6296,21.6857,4.8397,14.0289,.21,17.20021-5.8539,17.20021-5.8539l-2.03111,.9692,.98-1.7638Z" style="fill: rgb(230, 230, 230); transform-origin: 438.569px 138.975px;" id="el57u4p3fwkhc" class="animable"></path><path d="M417.55259,137.8142c1.1001,.4489,2.3286,.4691,3.4428,.0564,24.1828-11.6407,38.1518,.5748,38.1518,.5748l-.6533,1.1758-41.4868-.6272c.0261-.4481,.221-.8697,.5455-1.1798Z" style="fill: rgb(245, 245, 245); transform-origin: 438.077px 136.232px;" id="elwrp42mtmuc" class="animable"></path><path d="M451.80869,135.5889s-4.9482,3.2515-.1126,7.4403c0,0-3.7473-1.3053-3.5078-4.0919,.2395-2.7864,3.6204-3.3484,3.6204-3.3484Z" style="fill: rgb(224, 224, 224); transform-origin: 449.993px 139.309px;" id="eldiiha91drj" class="animable"></path><path d="M453.33819,138.3044c.1385,.5393,.5365,.8997,.96381,.7425,.42749-.1574,.60379-.6649,.46529-1.2043-.1386-.5394-.5365-.8998-.9535-.7486-.417,.151-.6144,.6468-.4756,1.2104Z" style="fill: rgb(224, 224, 224); transform-origin: 454.054px 138.072px;" id="elfcw3r7m7ty" class="animable"></path></g><path d="M445.64259,138.2123l.3768,2.5012s-6.028,.7785-6.6612-.1059c-.6331-.8845-5.388-.1542-5.8014-1.1385-.4134-.9845,12.0858-1.2568,12.0858-1.2568Z" style="fill: rgb(224, 224, 224); transform-origin: 439.783px 139.621px;" id="elq3mlmduvc4" class="animable"></path></g><g id="el9g28ea4a0ea" class="animable" style="transform-origin: 364.376px 155.942px;"><g id="freepik--freepik--fishes-1--inject-2-4--inject-60" class="animable" style="transform-origin: 364.376px 155.942px;"><path d="M353.29229,155.2909s-3.789-3.7511-4.3004-3.4682c-.5113,.2829,2.3307,3.1976,2.3182,3.9411-.0123,.7435-3.1733,2.5615-3.02809,3.0678,.14539,.5063,4.98419-2.0192,4.98419-2.0192l.5649-.5752-.5388-.9463Z" style="fill: rgb(224, 224, 224); transform-origin: 351.054px 155.353px;" id="el24qod6w153p" class="animable"></path><path d="M371.62839,152.7629s-2.7673-4.2369-3.1795-3.9383c-.4124,.2987-1.3723,3.8699-1.3723,3.8699l-.9092-.0138s-2.73639-2.6715-3.3022-2.3244c-.5658,.3469-.42319,1.4072-.42319,1.4072-2.48821,.4811-4.88021,1.3685-7.08021,2.6266l.6371,1.4416-.4301,1.7962s4.3165,2.0907,5.9796,2.4181c0,0-.3757,1.5095,.2031,1.5718,.5787,.0622,4.0768-2.2388,4.0768-2.2388l5.5388-5.2811,.2613-1.335Z" style="fill: rgb(224, 224, 224); transform-origin: 363.495px 155.214px;" id="el1u257mpk7gc" class="animable"></path><path d="M371.83669,159.4135s-3.55669,4.4545-3.7436,3.5369c-.105-.6887-.0953-1.3899,.0287-2.0754l1.8247-1.691,1.8902,.2295Z" style="fill: rgb(224, 224, 224); transform-origin: 369.929px 161.129px;" id="elix4r4tank1" class="animable"></path><path d="M379.80339,155.6965s-8.911-7.7924-24.33739-.3667c-.71071,.2633-1.49441,.2504-2.19621-.036-.42679,.381-.464,1.0358-.083,1.4625,.01821,.0205,.03721,.0401,.057,.059,.80121-.1625,1.6281-.1506,2.4244,.0351,0,0,4.8844,2.9532,13.8335,3.0872,8.9492,.134,10.9722-3.7342,10.9722-3.7342l-1.2957,.6183,.6252-1.1252Z" style="fill: rgb(230, 230, 230); transform-origin: 366.699px 156.031px;" id="elqh2kkpdzc5" class="animable"></path><path d="M353.29229,155.2909c.7018,.2864,1.4854,.2993,2.1962,.036,15.42651-7.4257,24.3374,.3667,24.3374,.3667l-.4168,.7501-26.4648-.4001c.0166-.2859,.141-.5549,.348-.7527Z" style="fill: rgb(245, 245, 245); transform-origin: 366.385px 154.281px;" id="el2rkbd9d8aa8" class="animable"></path><path d="M375.14459,153.8714s-3.1565,2.0741-.0718,4.7462c0,0-2.3905-.8326-2.2377-2.6102,.1528-1.7775,2.3095-2.136,2.3095-2.136Z" style="fill: rgb(224, 224, 224); transform-origin: 373.986px 156.244px;" id="elviij7qmsb98" class="animable"></path><path d="M376.12029,155.6036c.0883,.3441,.3422,.574,.6148,.4737,.2727-.1004,.3852-.4242,.2968-.7682-.0884-.3442-.3422-.574-.6082-.4776-.266,.0963-.392,.4126-.3034,.7721Z" style="fill: rgb(224, 224, 224); transform-origin: 376.577px 155.455px;" id="elu0ury26jhnl" class="animable"></path></g><path d="M371.21119,155.5449l.2403,1.5955s-3.8453,.4966-4.2492-.0675c-.4038-.5643-3.437-.0984-3.7008-.7263-.2637-.628,7.7097-.8017,7.7097-.8017Z" style="fill: rgb(224, 224, 224); transform-origin: 367.473px 156.444px;" id="elacdbef72ct" class="animable"></path></g><g id="elff559927per" class="animable" style="transform-origin: 400.796px 115.659px;"><g id="freepik--freepik--fishes-1--inject-2-5--inject-60" class="animable" style="transform-origin: 400.796px 115.659px;"><path d="M392.81879,115.1898s-2.7273-2.6999-3.0953-2.4963c-.3681,.2037,1.67751,2.3015,1.6686,2.8367-.0089,.5352-2.2842,1.8437-2.1796,2.2081s3.58751-1.4533,3.58751-1.4533l.40659-.4141-.3878-.6811Z" style="fill: rgb(224, 224, 224); transform-origin: 391.208px 115.235px;" id="elmtu1ej92yr" class="animable"></path><path d="M406.01659,113.3702s-1.9918-3.0496-2.2885-2.8346c-.2968,.215-.9877,2.7854-.9877,2.7854l-.65439-.01s-1.96961-1.9228-2.37691-1.673-.3046,1.0129-.3046,1.0129c-1.791,.3463-3.5127,.985-5.0962,1.8906l.4586,1.0376-.3096,1.2928s3.1069,1.5049,4.304,1.7405c0,0-.2704,1.0866,.1461,1.1314,.41661,.0448,2.9345-1.6114,2.9345-1.6114l3.9866-3.8013,.1881-.9609Z" style="fill: rgb(224, 224, 224); transform-origin: 400.162px 115.135px;" id="elxctdw76t2m9" class="animable"></path><path d="M406.16659,118.1572s-2.56,3.2062-2.69459,2.5457c-.07561-.4957-.06861-1.0004,.02059-1.4938l1.3135-1.2171,1.3605,.1652Z" style="fill: rgb(224, 224, 224); transform-origin: 404.793px 119.392px;" id="elpki64gegl6" class="animable"></path><path d="M411.90079,115.4818s-6.4139-5.6088-17.5174-.264c-.5116,.1895-1.0757,.1803-1.5808-.0259-.3072,.2742-.334,.7455-.0598,1.0527,.0131,.0147,.0268,.0289,.041,.0425,.5768-.117,1.1719-.1084,1.7451,.0252,0,0,3.5157,2.1257,9.957,2.2221,6.4414,.0965,7.8975-2.6878,7.8975-2.6878l-.9326,.445,.45-.8098Z" style="fill: rgb(230, 230, 230); transform-origin: 402.468px 115.723px;" id="elybxqxu1bcei" class="animable"></path><path d="M392.81879,115.1898c.5051,.2062,1.0691,.2154,1.5807,.0259,11.1036-5.3448,17.51751,.264,17.51751,.264l-.3,.5399-19.04871-.288c.012-.2058,.1015-.3994,.2505-.5418Z" style="fill: rgb(245, 245, 245); transform-origin: 402.243px 114.463px;" id="elofvapq503t" class="animable"></path><path d="M408.54749,114.1681s-2.272,1.4929-.0517,3.4162c0,0-1.7206-.5993-1.6106-1.8788,.11-1.2794,1.6623-1.5374,1.6623-1.5374Z" style="fill: rgb(224, 224, 224); transform-origin: 407.714px 115.876px;" id="el0q38t4opwub" class="animable"></path><path d="M409.24979,115.4149c.0636,.2477,.2463,.4131,.4425,.3409,.1963-.0722,.2772-.3053,.2136-.5529-.0636-.2477-.2463-.4131-.4378-.3437-.1914,.0693-.28209,.297-.2183,.5557Z" style="fill: rgb(224, 224, 224); transform-origin: 409.578px 115.308px;" id="el30u5fsyyfm7" class="animable"></path></g><path d="M405.71629,115.3726l.173,1.1485s-2.7678,.3574-3.0585-.0487-2.4739-.0707-2.6637-.5227,5.5492-.5771,5.5492-.5771Z" style="fill: rgb(224, 224, 224); transform-origin: 403.026px 116.02px;" id="el571l8yluuz" class="animable"></path></g><g id="elh6ii5pin62m" class="animable" style="transform-origin: 115.753px 76.3526px;"><g id="freepik--freepik--fishes-1--inject-2-6--inject-60" class="animable" style="transform-origin: 115.753px 76.3526px;"><path d="M123.7308,75.8838s2.7273-2.7,3.0953-2.4963c.3681,.2036-1.6775,2.3015-1.6685,2.8367,.0089,.5352,2.2841,1.8437,2.1795,2.2081s-3.5875-1.4534-3.5875-1.4534l-.4066-.414,.3878-.6811Z" style="fill: rgb(224, 224, 224); transform-origin: 125.342px 75.9286px;" id="elarfzr3d04k" class="animable"></path><path d="M110.533,74.0642s1.9918-3.0496,2.2885-2.8347c.2968,.215,.9878,2.7854,.9878,2.7854l.6544-.0099s1.9695-1.9228,2.3768-1.673c.4073,.2497,.3046,1.0128,.3046,1.0128,1.791,.3464,3.5127,.9851,5.0962,1.8906l-.4586,1.0376,.3096,1.2929s-3.1069,1.5049-4.304,1.7405c0,0,.2704,1.0865-.1461,1.1313-.4166,.0448-2.9344-1.6114-2.9344-1.6114l-3.9867-3.8012-.1881-.9609Z" style="fill: rgb(224, 224, 224); transform-origin: 116.387px 75.8286px;" id="el1diuftielxq" class="animable"></path><path d="M110.383,78.8511s2.5601,3.2062,2.6946,2.5458c.0756-.4957,.0686-1.0004-.0206-1.4938l-1.3134-1.2172-1.3606,.1652Z" style="fill: rgb(224, 224, 224); transform-origin: 111.756px 80.0862px;" id="elwrfejehbew" class="animable"></path><path d="M104.6488,76.1757s6.4139-5.6087,17.5174-.2639c.5116,.1895,1.0757,.1803,1.5808-.0259,.3072,.2742,.334,.7455,.0598,1.0527-.0131,.0147-.0268,.0288-.041,.0424-.5768-.1169-1.1719-.1084-1.745,.0253,0,0-3.5158,2.1256-9.9571,2.2221-6.4414,.0964-7.8975-2.6878-7.8975-2.6878l.9326,.445-.45-.8099Z" style="fill: rgb(230, 230, 230); transform-origin: 114.081px 76.4169px;" id="elreweeodbk7f" class="animable"></path><path d="M123.7308,75.8838c-.5051,.2061-1.0691,.2154-1.5807,.0259-11.1036-5.3448-17.5175,.2639-17.5175,.2639l.3,.5399,19.0487-.288c-.012-.2057-.1014-.3993-.2505-.5417Z" style="fill: rgb(245, 245, 245); transform-origin: 114.307px 75.1571px;" id="eleixsus541qa" class="animable"></path><path d="M108.0021,74.8621s2.272,1.4929,.0517,3.4162c0,0,1.7206-.5993,1.6106-1.8788-.1099-1.2794-1.6623-1.5374-1.6623-1.5374Z" style="fill: rgb(224, 224, 224); transform-origin: 108.836px 76.5702px;" id="elxqap8b8fn6e" class="animable"></path><path d="M107.2998,76.1089c-.0635,.2476-.2463,.4131-.4425,.3409-.1963-.0723-.2772-.3053-.2136-.5529,.0636-.2477,.2463-.4132,.4378-.3438,.1915,.0694,.2821,.297,.2183,.5558Z" style="fill: rgb(224, 224, 224); transform-origin: 106.971px 76.002px;" id="el1m2edpg7gq2" class="animable"></path></g><path d="M110.8333,76.0666l-.173,1.1484s2.7678,.3575,3.0585-.0486,2.4739-.0708,2.6637-.5227c.1898-.452-5.5492-.5771-5.5492-.5771Z" style="fill: rgb(224, 224, 224); transform-origin: 113.524px 76.7135px;" id="elg313pbhhuu9" class="animable"></path></g><g id="elee037bkb50g" class="animable" style="transform-origin: 93.6228px 52.7446px;"><g id="freepik--freepik--fishes-1--inject-2-7--inject-60" class="animable" style="transform-origin: 93.6228px 52.7446px;"><path d="M106.9914,51.9589s4.5704-4.5246,5.1872-4.1833-2.8113,3.8569-2.7963,4.7538c.0149,.8968,3.8278,3.0896,3.6525,3.7003s-6.0119-2.4355-6.0119-2.4355l-.6814-.6938,.6499-1.1415Z" style="fill: rgb(224, 224, 224); transform-origin: 109.691px 52.0339px;" id="el3w7150xfrpa" class="animable"></path><path d="M84.8743,48.9096s3.338-5.1105,3.8352-4.7503c.4974,.3603,1.6552,4.6678,1.6552,4.6678l1.0967-.0166s3.3007-3.2224,3.9832-2.8037c.6825,.4185,.5104,1.6974,.5104,1.6974,3.0013,.5803,5.8866,1.6507,8.5402,3.1682l-.7685,1.7388,.5188,2.1667s-5.2066,2.5218-7.2126,2.9166c0,0,.4532,1.8209-.2449,1.8959-.6981,.0751-4.9175-2.7004-4.9175-2.7004l-6.6809-6.3701-.3153-1.6103Z" style="fill: rgb(224, 224, 224); transform-origin: 94.6847px 51.8665px;" id="el6fwo1qmxxwp" class="animable"></path><path d="M84.6231,56.9316s4.2901,5.373,4.5156,4.2662c.1266-.8306,.1149-1.6765-.0346-2.5033l-2.2011-2.0397-2.2799,.2768Z" style="fill: rgb(224, 224, 224); transform-origin: 86.9244px 59.0014px;" id="el14hv8ecvybm" class="animable"></path><path d="M75.0137,52.4482s10.7484-9.3992,29.3558-.4424c.8573,.3176,1.8025,.3022,2.6491-.0433,.5147,.4595,.5596,1.2493,.1001,1.764-.022,.0247-.0448,.0484-.0687,.0712-.9665-.196-1.9639-.1816-2.9244,.0423,0,0-5.8916,3.5622-16.686,3.7239-10.7945,.1616-13.2347-4.5043-13.2347-4.5043l1.5628,.7457-.754-1.3571Z" style="fill: rgb(230, 230, 230); transform-origin: 90.8205px 52.8523px;" id="elcckgjb9k4m" class="animable"></path><path d="M106.9914,51.9589c-.8464,.3455-1.7917,.361-2.649,.0435-18.6075-8.957-29.3559,.4422-29.3559,.4422l.5027,.9048,31.922-.4826c-.0201-.3448-.1701-.6692-.4198-.9079Z" style="fill: rgb(245, 245, 245); transform-origin: 91.1988px 50.7412px;" id="el058yqhx0h2p" class="animable"></path><path d="M80.6331,50.2467s3.8074,2.5019,.0867,5.725c0,0,2.8833-1.0044,2.699-3.1485s-2.7857-2.5765-2.7857-2.5765Z" style="fill: rgb(224, 224, 224); transform-origin: 82.0302px 53.1092px;" id="el1ac7lyzigz4h" class="animable"></path><path d="M79.4562,52.3362c-.1065,.415-.4128,.6922-.7416,.5712-.3289-.121-.4645-.5116-.358-.9265,.1066-.4151,.4128-.6924,.7337-.5761,.3209,.1162,.4728,.4977,.3659,.9314Z" style="fill: rgb(224, 224, 224); transform-origin: 78.9055px 52.1571px;" id="elmzg51e0v1k" class="animable"></path></g><path d="M85.3776,52.2653l-.2899,1.9245s4.6382,.5991,5.1255-.0815c.4871-.6806,4.1457-.1186,4.4638-.876s-9.2994-.967-9.2994-.967Z" style="fill: rgb(224, 224, 224); transform-origin: 89.8862px 53.3494px;" id="elwlaiw8eka5k" class="animable"></path></g></g><g id="freepik--Shadow--inject-60" class="animable" style="transform-origin: 250px 447.508px;"><path d="M458.875,447.508c0,3.3867-93.51651,6.1322-208.875,6.1322s-208.875-2.7455-208.875-6.1322,93.5165-6.1323,208.875-6.1323,208.875,2.7455,208.875,6.1323Z" style="fill: rgb(245, 245, 245); transform-origin: 250px 447.508px;" id="elesi80jia43q" class="animable"></path></g><g id="freepik--Plants--inject-60" class="animable" style="transform-origin: 221.107px 412.825px;"><g id="elip1nf1wieu" class="animable" style="transform-origin: 140.613px 412.825px;"><path d="M142.7225,442.3752s-9.1165-7.4058-11.2665-14.5726c-2.1501-7.1669-9.317-16.2449-16.7227-17.9172-7.4058-1.6723-14.5727-13.617-14.5727-13.617,0,0,9.317,9.7947,15.7671,10.9891,6.4502,1.1945,11.7059,1.4334,16.4838,8.3614,4.778,6.928,6.2113,15.2893,12.4226,17.2005,6.2113,1.9111,8.3614,9.5558,8.3614,9.5558h-10.473Z" style="fill: rgb(38, 50, 56); transform-origin: 126.678px 419.322px;" id="eluer8a126auh" class="animable"></path><path d="M161.619,442.3223s-5.0542-1.1583-6.4501-5.2557c-2.0398-5.9872-4.5391-15.2893-8.1225-17.2005-3.5834-1.9112-18.395-6.4502-18.6338-9.078,0,0,6.2112,3.5834,12.4225,5.0168,6.2113,1.4334,12.4226,1.1945,15.7671,7.6446,3.3446,6.4502,1.9112,11.467,5.0168,14.5727,3.1057,3.1056,6.928,4.353,6.928,4.353l-6.928-.0529Z" style="fill: rgb(38, 50, 56); transform-origin: 148.48px 426.582px;" id="elj7ck4opk7t" class="animable"></path><path d="M104.3798,384.4898c0,1.1945,8.8391,16.2449,24.3673,23.4117,15.5282,7.1669,30.5787,9.5559,34.8788,13.856,4.3001,4.3001,9.8544,20.6177,9.8544,20.6177h7.585s-3.5835-19.4232-13.1393-25.3956c-9.5558-5.9724-28.4286-5.0168-38.94-12.4226-10.5114-7.4058-24.6062-20.0672-24.6062-20.0672Z" style="fill: rgb(38, 50, 56); transform-origin: 142.723px 413.433px;" id="el36ludmspmpm" class="animable"></path><path d="M117.2801,383.2953s3.5835-.2389,8.1225,6.928c4.539,7.1668,7.1669,10.9892,12.1837,12.9003,5.0168,1.9112,12.5674,3.5482,14.8115,6.4502s8.8903,10.5114,8.8903,10.5114h5.4434s-7.4057-11.7059-15.2893-15.7671-10.2725-.7167-16.006-6.928c-5.7335-6.2112-10.5114-14.5726-18.1561-14.0948Z" style="fill: rgb(38, 50, 56); transform-origin: 142.006px 401.68px;" id="el134m44o5rtcb" class="animable"></path></g><g id="elrhh7ig7bvb" class="animable" style="transform-origin: 307.86px 419.322px;"><path d="M314.75639,439.5084s-7.6446-4.539-9.7947-11.7058c-2.15-7.1669-9.3169-16.2449-16.72269-17.9172-7.40571-1.6723-14.57261-13.617-14.57261-13.617,0,0,9.3169,9.7947,15.7671,10.9891,6.4502,1.1945,11.7059,1.4334,16.4838,8.3614s6.2113,15.2893,12.4226,17.2005c6.2112,1.9111,8.3613,9.5558,8.3613,9.5558l-11.9448-2.8668Z" style="fill: rgb(38, 50, 56); transform-origin: 300.184px 419.322px;" id="elhuh8rjqs6zr" class="animable"></path><path d="M335.12479,441.2168s-5.2557,.9556-6.4502-5.2557-4.539-15.2893-8.1224-17.2004c-3.5835-1.9112-18.395-6.4502-18.6339-9.0781,0,0,6.2113,3.5835,12.4226,5.0168,6.2113,1.4334,12.4225,1.1945,15.76711,7.6447,3.34449,6.4502,1.91119,11.467,5.01679,14.5726,3.1056,3.1057,6.928,4.353,6.928,4.353l-6.928-.0529Z" style="fill: rgb(38, 50, 56); transform-origin: 321.986px 425.476px;" id="elbp8a6szweoj" class="animable"></path></g></g><g id="freepik--Rocks--inject-60" class="animable" style="transform-origin: 239.109px 439.088px;"><g id="elti6i7srcfa9" class="animable" style="transform-origin: 146.498px 440.051px;"><g id="el787zpnhgfc" class="animable" style="transform-origin: 146.498px 440.051px;"><path d="M168.6671,447.1161c-1.1154,1.9306-3.28,3.0117-5.5096,3.0117h-27.2303c-11.2179,0-18.9227-11.4471-4.2835-18.3814,13.2666-6.2843,42.775,5.4147,37.0234,15.3697Z" style="fill: rgb(64, 123, 255); transform-origin: 146.498px 440.051px;" id="elrafn2szyhr" class="animable"></path><g id="elxs5ohrggqz"><path d="M168.6671,447.1161c-1.1154,1.9306-3.28,3.0117-5.5096,3.0117h-27.2303c-11.2179,0-18.9227-11.4471-4.2835-18.3814,13.2666-6.2843,42.775,5.4147,37.0234,15.3697Z" style="fill: rgb(255, 255, 255); opacity: 0.2; transform-origin: 146.498px 440.051px;" class="animable"></path></g></g><g id="elzhq71vdr3pm"><path d="M160.0591,437.4402c-.3654,.8699-2.3323,.902-4.3933,.072-2.061-.8302-3.4357-2.2083-3.0704-3.0782,.3652-.8698,2.3321-.902,4.3933-.0719,2.061,.8302,3.4357,2.2083,3.0704,3.0781Z" style="fill: rgb(255, 255, 255); opacity: 0.4; transform-origin: 156.327px 435.937px;" class="animable"></path></g><g id="elpqvpe6u0wg9"><path d="M163.7234,441.5445c-.2197,.4655-1.1034,.5506-1.9736,.1902-.8704-.3603-1.3978-1.0299-1.178-1.4953,.2197-.4655,1.1032-.5505,1.9736-.1902,.8704,.3604,1.3977,1.0299,1.178,1.4953Z" style="fill: rgb(255, 255, 255); opacity: 0.4; transform-origin: 162.148px 440.892px;" class="animable"></path></g><g id="elq5ghqu8yf2f"><path d="M158.1712,440.7827c-.1597,.3512-.7097,.4591-1.2283,.2411-.5187-.2179-.8096-.6793-.6499-1.0304,.1598-.3511,.7098-.4591,1.2285-.2411,.5185,.218,.8095,.6793,.6497,1.0304Z" style="fill: rgb(255, 255, 255); opacity: 0.4; transform-origin: 157.232px 440.388px;" class="animable"></path></g></g><g id="elir4krf3z6i" class="animable" style="transform-origin: 182.361px 437.561px;"><g id="elt6nkyn4xkth" class="animable" style="transform-origin: 182.361px 437.561px;"><path d="M195.7327,441.8217c-.6728,1.1644-1.9784,1.8165-3.3232,1.8165h-16.4238c-6.766,0-11.4132-6.9043-2.5836-11.0867,8.0017-3.7904,25.7996,3.2658,22.3306,9.2702Z" style="fill: rgb(64, 123, 255); transform-origin: 182.361px 437.561px;" id="elk2j2p1u07o" class="animable"></path><g id="el6bjop3uupzb"><path d="M195.7327,441.8217c-.6728,1.1644-1.9784,1.8165-3.3232,1.8165h-16.4238c-6.766,0-11.4132-6.9043-2.5836-11.0867,8.0017-3.7904,25.7996,3.2658,22.3306,9.2702Z" style="fill: rgb(255, 255, 255); opacity: 0.2; transform-origin: 182.361px 437.561px;" class="animable"></path></g></g><g id="el629lr598gg"><path d="M190.5408,435.9857c-.2204,.5246-1.4067,.544-2.6498,.0434-1.2431-.5007-2.0723-1.3319-1.8519-1.8566,.2202-.5246,1.4066-.5441,2.6497-.0434s2.0723,1.3319,1.852,1.8566Z" style="fill: rgb(255, 255, 255); opacity: 0.4; transform-origin: 188.29px 435.079px;" class="animable"></path></g><g id="ellzngwgiuk1"><path d="M192.7509,438.4612c-.1325,.2807-.6655,.332-1.1904,.1147-.525-.2174-.843-.6212-.7105-.9019,.1325-.2808,.6654-.3321,1.1904-.1147,.5249,.2173,.843,.6211,.7105,.9019Z" style="fill: rgb(255, 255, 255); opacity: 0.4; transform-origin: 191.8px 438.068px;" class="animable"></path></g><g id="el1hei7iuee2j"><path d="M189.4021,438.0017c-.0963,.2118-.4281,.2769-.7409,.1454-.3128-.1314-.4883-.4097-.3919-.6215,.0963-.2118,.428-.2769,.7409-.1454,.3128,.1315,.4883,.4097,.3919,.6215Z" style="fill: rgb(255, 255, 255); opacity: 0.4; transform-origin: 188.836px 437.764px;" class="animable"></path></g></g><g id="elggzrkn4x1bp" class="animable" style="transform-origin: 336.978px 435.812px;"><g id="elvkltxmshog" class="animable" style="transform-origin: 336.978px 435.812px;"><path d="M354.05759,441.2546c-.8593,1.4874-2.527,2.3203-4.2448,2.3203h-20.9786c-8.6425,0-14.5785-8.8191-3.30019-14.1614,10.22089-4.8415,32.95469,4.1716,28.52359,11.8411Z" style="fill: rgb(64, 123, 255); transform-origin: 336.978px 435.812px;" id="el7slphqd2vqu" class="animable"></path><g id="elo7y21mbbbp"><path d="M354.05759,441.2546c-.8593,1.4874-2.527,2.3203-4.2448,2.3203h-20.9786c-8.6425,0-14.5785-8.8191-3.30019-14.1614,10.22089-4.8415,32.95469,4.1716,28.52359,11.8411Z" style="fill: rgb(255, 255, 255); opacity: 0.2; transform-origin: 336.978px 435.812px;" class="animable"></path></g></g><g id="el03sovdowekmn"><path d="M347.42579,433.8001c-.2815,.6702-1.79679,.6949-3.3847,.0555-1.5878-.6396-2.6469-1.7013-2.3655-2.3715,.28141-.6701,1.7967-.695,3.3847-.0554,1.5878,.6396,2.6469,1.7013,2.3655,2.3714Z" style="fill: rgb(255, 255, 255); opacity: 0.4; transform-origin: 344.551px 432.642px;" class="animable"></path></g><g id="eljstl6dlh4v"><path d="M350.24879,436.9621c-.1692,.3587-.85,.4242-1.5205,.1466s-1.0768-.7934-.9076-1.152c.16931-.3586,.85-.4242,1.5206-.1466,.6705,.2777,1.0768,.7935,.9075,1.152Z" style="fill: rgb(255, 255, 255); opacity: 0.4; transform-origin: 349.035px 436.459px;" class="animable"></path></g><g id="eljdwnr6xztd"><path d="M345.97129,436.3753c-.123,.2705-.5468,.3536-.94629,.1857-.39961-.1679-.62371-.5234-.50071-.7939,.1231-.2705,.5468-.3536,.9464-.1857s.6238,.5234,.5006,.7939Z" style="fill: rgb(255, 255, 255); opacity: 0.4; transform-origin: 345.248px 436.071px;" class="animable"></path></g></g></g><g id="freepik--Bubbles--inject-60" class="animable" style="transform-origin: 429.951px 226.824px;"><g id="el7k8s6nlnad" class="animable" style="transform-origin: 429.951px 226.824px;"><g id="elqr3kzp3sig9"><circle cx="420.49629" cy="226.34967" r="8.91149" style="fill: rgb(64, 123, 255); opacity: 0.3; transform-origin: 420.496px 226.35px; transform: rotate(-22.3716deg);" class="animable"></circle></g><g id="el40wi4kho6vs"><path d="M451.039,233.981c0,3.4407-2.78921,6.2299-6.22981,6.2299s-6.2298-2.7892-6.2298-6.2299,2.7892-6.2298,6.2298-6.2298,6.22981,2.7892,6.22981,6.2298Z" style="fill: rgb(64, 123, 255); opacity: 0.3; transform-origin: 444.809px 233.981px;" class="animable"></path></g><g id="eljruokjsxe6j"><path d="M443.83839,212.9824c0,2.4608-1.9949,4.4557-4.4558,4.4557s-4.4557-1.9949-4.4557-4.4557,1.9949-4.4558,4.4557-4.4558,4.4558,1.9949,4.4558,4.4558Z" style="fill: rgb(64, 123, 255); opacity: 0.3; transform-origin: 439.383px 212.982px;" class="animable"></path></g><g id="elfn18ehp7p9s"><circle cx="429.40779" cy="252.622" r="2.9634" style="fill: rgb(64, 123, 255); opacity: 0.3; transform-origin: 429.408px 252.622px;" class="animable"></circle></g><g id="ela65ukbjd3dp"><path d="M432.37119,201.0259c0,1.6366-1.3268,2.9633-2.9634,2.9633s-2.9634-1.3267-2.9634-2.9633,1.3268-2.9634,2.9634-2.9634,2.9634,1.3268,2.9634,2.9634Z" style="fill: rgb(64, 123, 255); opacity: 0.3; transform-origin: 429.408px 201.026px;" class="animable"></path></g></g></g><g id="freepik--Character--inject-60" class="animable" style="transform-origin: 255.257px 199.713px;"><g id="el8a733t6ir02" class="animable" style="transform-origin: 255.257px 199.713px;"><g id="el2hzkm67qzr7" class="animable" style="transform-origin: 254.911px 217.003px;"><g id="elhp239uvra96" class="animable" style="transform-origin: 179.465px 217.003px;"><rect x="178.0771" y="71.2187" width="2.7763" height="291.5684" style="fill: rgb(38, 50, 56); transform-origin: 179.465px 217.003px;" id="elagmrd3tsg3" class="animable"></rect><g id="el44jwkshvvyt"><rect x="178.0771" y="71.2187" width="2.7763" height="291.5684" style="fill: rgb(255, 255, 255); opacity: 0.4; transform-origin: 179.465px 217.003px;" class="animable"></rect></g></g><g id="el0cbsvx248ewv" class="animable" style="transform-origin: 251.422px 217.003px;"><rect x="250.03379" y="71.2187" width="2.7764" height="291.5684" style="fill: rgb(38, 50, 56); transform-origin: 251.422px 217.003px;" id="el9yafsjkueeg" class="animable"></rect><g id="el5y6y6fkssx"><rect x="250.03379" y="71.2187" width="2.7764" height="291.5684" style="fill: rgb(255, 255, 255); opacity: 0.4; transform-origin: 251.422px 217.003px;" class="animable"></rect></g></g><g id="el9slynhemuxs" class="animable" style="transform-origin: 330.356px 217.003px;"><rect x="328.96779" y="71.2187" width="2.7764" height="291.5684" style="fill: rgb(38, 50, 56); transform-origin: 330.356px 217.003px;" id="elvvoib37qk" class="animable"></rect><g id="elgt9boqp7ov"><rect x="328.96779" y="71.2187" width="2.7764" height="291.5684" style="fill: rgb(255, 255, 255); opacity: 0.4; transform-origin: 330.356px 217.003px;" class="animable"></rect></g></g></g><g id="elufja8hwrqoo"><path d="M231.19589,69.171c-.2206,.8829,.3163,1.7775,1.1992,1.9981,.883,.2207,1.7776-.3162,1.9982-1.1992,.22071-.8829-.3162-1.7775-1.1992-1.9981-.8829-.2207-1.7776,.3163-1.9982,1.1992Z" style="fill: rgb(64, 123, 255); opacity: 0.3; transform-origin: 232.795px 69.5704px;" class="animable"></path></g><g id="el32gxtn5gnj2" class="animable" style="transform-origin: 249.177px 217.003px;"><g id="elt11mrx0crqd" class="animable" style="transform-origin: 279.622px 156.576px;"><path d="M267.11839,129.1457l2.656-.9867c2.1037-.7815,4.4643,.3003,5.2459,2.404l-10.3059,3.8285c-.7816-2.1038,.3002-4.4644,2.404-5.2458Z" style="fill: rgb(38, 50, 56); transform-origin: 269.74px 131.148px;" id="el8ic7kcnjha4" class="animable"></path><g id="elfcr7i4pvhed" class="animable" style="transform-origin: 279.622px 157.668px;"><path d="M284.42519,184.3371l8.2727-3.0732c3.39211-1.26,5.1364-5.0663,3.8763-8.4584l-13.0228-35.0566c-2.1053-5.667-8.46439-8.5813-14.1315-6.4761h0c-5.6671,2.1052-8.5814,8.4643-6.4761,14.1314l13.0228,35.0566c1.2601,3.3921,5.0665,5.1365,8.4586,3.8763Z" style="fill: rgb(64, 123, 255); transform-origin: 279.622px 157.668px;" id="elkmw298q0xog" class="animable"></path><g id="elap3h1oj127"><path d="M284.42519,184.3371l8.2727-3.0732c3.39211-1.26,5.1364-5.0663,3.8763-8.4584l-13.0228-35.0566c-2.1053-5.667-8.46439-8.5813-14.1315-6.4761h0c-5.6671,2.1052-8.5814,8.4643-6.4761,14.1314l13.0228,35.0566c1.2601,3.3921,5.0665,5.1365,8.4586,3.8763Z" style="fill: rgb(255, 255, 255); opacity: 0.6; transform-origin: 279.622px 157.668px;" class="animable"></path></g></g><path d="M267.57769,157.878c7.2282-1.4549,14.18231-4.0382,20.60731-7.6553-.91321-2.4582-1.82651-4.9167-2.73981-7.3753-6.4248,3.6174-13.379,6.2008-20.6073,7.6553,.9132,2.4582,1.8264,4.9167,2.7398,7.3753Z" style="fill: rgb(38, 50, 56); transform-origin: 276.511px 150.363px;" id="el4sd5jr737js" class="animable"></path><path d="M273.60879,175.5402c7.1038-1.7896,14.058-4.373,20.6073-7.6553-.6304-1.6971-1.2609-3.3944-1.8915-5.0918-6.5492,3.2826-13.5034,5.8659-20.6073,7.6553,.6304,1.6971,1.2609,3.3944,1.8915,5.0918Z" style="fill: rgb(38, 50, 56); transform-origin: 282.967px 169.167px;" id="elx3qxil3i38d" class="animable"></path><g id="elshe3natsgak"><path d="M276.56289,150.3627c-.0515,0-2.1364,11.9422,.735,16.6367,2.8714,4.6944,10.88711,16.2845,10.88711,16.2845l-6.98191,1.963-11.4629-11.5155-2.6739-15.8534,7.1726-8.9675,2.324,1.4522Z" style="opacity: 0.2; transform-origin: 277.626px 167.079px;" class="animable"></path></g></g><path d="M267.156,107.5296c-2.06791-3.0578-5.978-4.416-9.66941-4.4495-2.9514-.0269-5.9524,.6939-8.402,2.3406-2.44959,1.6467-3.2978,4.4814-3.71959,7.4028-.42171,2.9214-.29481,5.8752,2.06589,7.6471l12.17311,4.6679c1.60009-.313,2.43089,.6536,3.92439,0s3.6609-2.9646,4.4429-4.3952c.72971-1.3347,.8826-2.9018,.9511-4.4214,.137-3.0396-.0619-6.2719-1.76639-8.7923Z" style="fill: rgb(38, 50, 56); transform-origin: 257.067px 114.225px;" id="elzzq0rnqx5ad" class="animable"></path><g id="el7h75hubyhc7"><path d="M266.82419,288.7127l5.9689,10.5236s5.052,2.0742,5.9371,5.653c0,0-1.1413,.2156-2.2853,.2133-1.685-.0033-3.6265,.6908-5.5257,.0023-3.06919-1.1127-5.1793-7.974-5.1793-7.974l1.0843-8.4182Z" style="opacity: 0.3; transform-origin: 272.235px 297.061px;" class="animable"></path></g><path d="M262.02339,254.5165l1.10761-1.3665c2.63639,1.1753,9.32479-4.3623,11.91279,2.2785,2.2844,5.8607,7.05421,26.4898,15.9105,41.3594,1.2209,2.05,1.7436,5.9654-3.4502,6.4229-6.78809,.5978-13.9239,5.0946-18.88309-2.3306-5.30621-7.9446,3.38479-24.6595-6.78721-41.1092-1.0154-1.6421-.94-3.8609,.1896-5.2545Z" style="fill: rgb(64, 123, 255); transform-origin: 276.445px 278.6px;" id="elx7k1eqr131" class="animable"></path><g id="eld0kuftr3y77"><g style="opacity: 0.3; transform-origin: 276.445px 278.6px;" class="animable"><path d="M262.02339,254.5165l1.10761-1.3665c2.63639,1.1753,9.32479-4.3623,11.91279,2.2785,2.2844,5.8607,7.05421,26.4898,15.9105,41.3594,1.2209,2.05,1.7436,5.9654-3.4502,6.4229-6.78809,.5978-13.9239,5.0946-18.88309-2.3306-5.30621-7.9446,3.38479-24.6595-6.78721-41.1092-1.0154-1.6421-.94-3.8609,.1896-5.2545Z" id="el7lc994t7163" class="animable" style="transform-origin: 276.445px 278.6px;"></path></g></g><path d="M260.81139,174.7617s-33.223,31.4716-44.68739,52.8752c-14.62091,17.4752,47.97589,31.8622,47.97589,31.8622,6.4499,11.3687,8.4518,11.826,4.8419-1.4835-.53779-1.9827-1.609-3.7781-3.1134-5.177-5.7257-5.3237-21.14739-18.6439-33.1905-19.7288,34.1287-21.3534,47.3159-41.6202,47.3159-41.6202l-19.1424-16.7279Z" style="fill: rgb(38, 50, 56); transform-origin: 246.932px 221.389px;" id="elby62myp2p49" class="animable"></path><g id="elnvxqr27g85h"><path d="M242.15709,226.8239c4.707-3.395,11.584-8.5969,15.2641-11.7111-1.9873-.085,4.2632-16.3252,2.25-15.0829-2.4285,1.4988-15.77219,22.735-17.5141,26.794Z" style="opacity: 0.2; transform-origin: 251.117px 213.393px;" class="animable"></path></g><g id="elttc0jyq1e6"><path d="M255.42649,244.1296c-2.8464,3.2164-6.0263,6.6009-9.5903,10.151-4.8015-1.5958-9.9505-3.5109-14.6897-5.6878-.0833-5.1134,3.2373-9.6652,7.69551-14.03,5.66959,2.0283,11.575,5.7989,16.58449,9.5668Z" style="opacity: 0.2; transform-origin: 243.286px 244.422px;" class="animable"></path></g><g id="elrj2ufq87z0n"><polygon points="255.98109 257.3848 260.48719 248.1342 257.68389 245.7752 250.025 255.6281 255.98109 257.3848" style="opacity: 0.2; transform-origin: 255.256px 251.58px;" class="animable"></polygon></g><g id="elkmd0mv9tkoh" class="animable" style="transform-origin: 261.121px 325.346px;"><path d="M267.55909,299.3763l1.7758-.14c1.4845,2.6303,10.2008,4.8287,8.2596,11.0834-1.7128,5.5202-14.0291,23.9616-11.9382,37.5819,.3545,2.3088-1.8634,4.1653-4.0584,3.3663-6.9341-2.5239-17.6548-7.8072-17.2177-16.2452,.46781-9.0282,18.1134-14.1382,19.7654-32.2619,.1649-1.8092,1.60241-3.2417,3.4135-3.3845Z" style="fill: rgb(64, 123, 255); transform-origin: 261.121px 325.346px;" id="elecuoc9mygm6" class="animable"></path><g id="elu9hb5i30yl"><path d="M271.94249,302.073s2.99651,3.7644-2.8618,16.373c-5.8583,12.6087-8.4553,15.1986-11.2931,13.7076-3.6199-1.9019,2.7226-14.3199,2.7226-14.3199,0,0-9.2036,14.134-2.9963,16.2737,6.2073,2.1397,12.8665-15.98,14.6623-21.4008,1.79581-5.4208,2.3564-10.3786-.2337-10.6336Z" style="opacity: 0.3; transform-origin: 264.535px 318.178px;" class="animable"></path></g></g><path d="M268.34039,176.5707s-18.4009,45.9652-27.356,66.264c-9.4048,21.3182,26.6722,61.7516,26.0647,63.2902,0,0-8.8849,18.3153-3.5907,14.7865,1.8004-1.2,6.465-9.9181,7.5054-12.3422,.75621-1.762,.987-2.5916,.5004-3.9195-9.9936-27.2738-7.236-40.2433-19.3941-50.8213,18.2396-20.2305,26.8414-30.457,32.451-38.6603,1.859-2.7187,2.98191-5.5475,3.6204-8.2614,1.6292-6.9251,2.0138-19.9644-7.5971-28.4047l-3.1253-2.311-9.0787,.3797Z" style="fill: rgb(38, 50, 56); transform-origin: 264.228px 248.777px;" id="eleyc5h3afmxt" class="animable"></path><path d="M282.44929,180.3729s-19.2915,8.6899-27.0714,27.6963c-.9777,.8795-7.2887-11.2875-6.7722-24.4077,2.9934-5.0989,20.972-9.1354,29.2756-9.4827,1.7465,1.7955,3.6838,4.424,4.568,6.1941Z" style="fill: rgb(64, 123, 255); transform-origin: 265.512px 191.146px;" id="elwty2y8828z" class="animable"></path><g id="el1oz36l68hj6"><path d="M267.91149,255.5031s4.6971,1.0425,8.0712,14.5301c3.374,13.4875,2.9835,17.1344-.1606,17.7597-4.0106,.7976-6.8883-12.8462-6.8883-12.8462,0,0,1.7323,16.7772,7.9041,14.5374,6.1719-2.2398-.0451-20.516-2.0577-25.8601s-4.6945-9.5514-6.8687-8.1209Z" style="opacity: 0.3; transform-origin: 273.706px 272.455px;" class="animable"></path></g><path d="M250.14329,142.0832s-2.3311-7.6531-8.4058-4.3036c-3.3116,1.826-15.0349,19.6412-15.3609,20.0455l-17.6529-9.7087-2.9365,4.8055s16.5863,15.4492,22.8329,13.9788c6.2465-1.4704,16.8964-16.6216,19.0613-19.5755,1.6842-2.2983,2.2473-4.2652,2.4143-5.0252,.0476-.2168,.063-.3354,.063-.3354" style="fill: rgb(64, 123, 255); transform-origin: 227.973px 151.965px;" id="el7w9udkybfhc" class="animable"></path><g id="elttg1nsxla89" class="animable" style="transform-origin: 255.361px 123.556px;"><path d="M263.52839,136.9967s-2.6931,1.2044-6.3676,3.6129c-.7654,.5017-1.5899,.9143-2.4473,1.2343-2.3136,.8634-4.3712,1.2607-4.76749,.1479-.08851-.2449-.14711-.5051-.18041-.7744-.2231-1.8054,.2863-4.235,1.84541-5.172,1.75789-1.0567,2.66789-2.039,2.60689-3.791-.0224-.9918-.24189-2.0413-.5245-3.0699l1.4448-1.2987,7.4191-5.7453c-.7454,4.3912-2.1621,12.0063,.9711,14.8562Z" style="fill: rgb(38, 50, 56); transform-origin: 256.622px 132.407px;" id="elhy8ncchak4" class="animable"></path><g id="el7wysuxvqwxs"><path d="M254.22149,132.6378c1.9418-.8316,4.1622-2.4254,4.20451-4.5753,.012-.9058-.06881-1.7765-.21121-2.3466l-4.2962,4.3608c.1973,.8201,.239,1.3506,.3029,2.5611Z" style="opacity: 0.2; transform-origin: 256.173px 129.177px;" class="animable"></path></g><path d="M265.34549,115.2954c-1.5032,6.6466-1.9981,9.484-5.9349,12.5541-5.9217,4.618-13.72059,1.774-14.2247-5.0771-.4537-6.1663,2.0808-15.9997,9.0583-17.9567,6.8745-1.9278,12.6044,3.833,11.1013,10.4797Z" style="fill: rgb(235, 179, 118); transform-origin: 255.361px 117.273px;" id="eld4e4j33oqg4" class="animable"></path><path d="M256.68579,116.312c-.118,.6254-.5734,1.0923-1.0171,1.0432-.4436-.049-.7075-.5955-.5895-1.2206,.1179-.6252,.5733-1.0924,1.0169-1.0434s.7076,.5957,.5897,1.2208Z" style="fill: rgb(38, 50, 56); transform-origin: 255.882px 116.223px;" id="elvzdu46lwks8" class="animable"></path><path d="M249.72609,115.2977c-.1157,.6056-.5683,1.057-1.0105,1.0083-.4422-.0489-.7071-.5795-.5913-1.1852,.1158-.6055,.5682-1.057,1.0105-1.0083,.4424,.0488,.707,.5794,.5913,1.1852Z" style="fill: rgb(38, 50, 56); transform-origin: 248.925px 115.209px;" id="el9xnd6h7bbrp" class="animable"></path><path d="M258.07329,114.0426c-.087-.0017-.1707-.0382-.229-.1083-.9101-1.0963-2.1214-.9132-2.1355-.911-.1795,.0275-.34179-.0934-.358-.2752-.016-.1814,.1183-.352,.3004-.382,.0634-.01,1.5841-.2414,2.7131,1.1197,.1124,.1355,.0873,.3462-.056,.4702-.0694,.0595-.1536,.0882-.235,.0866Z" style="fill: rgb(38, 50, 56); transform-origin: 256.892px 113.194px;" id="elsdxjgyfkmq" class="animable"></path><path d="M247.92279,112.3638c-.0821,.0089-.1654-.0124-.2312-.0666-.1361-.1122-.14759-.3212-.0264-.4666,1.2171-1.4597,2.7274-1.3593,2.7919-1.3537,.1803,.0143,.3043,.1739,.2766,.3572-.0273,.1829-.1955,.3196-.3755,.3063-.0591-.0046-1.2325-.0654-2.2,1.0954-.0627,.0751-.1486,.1188-.2354,.128Z" style="fill: rgb(38, 50, 56); transform-origin: 249.159px 111.42px;" id="elorosuu2c1i" class="animable"></path><path d="M251.55849,115.3521s-1.38449,2.3796-2.7788,3.793c-.2436,.2471-.168,.6644,.1391,.8258,.7904,.4153,1.79921,.2668,1.79921,.2668l.84049-4.8856Z" style="fill: rgb(213, 135, 69); transform-origin: 250.097px 117.808px;" id="elkpdhpvojgk9" class="animable"></path><path d="M256.23309,115.0938l-1.49609-.5683s.69259,1.2628,1.49609,.5683Z" style="fill: rgb(38, 50, 56); transform-origin: 255.485px 114.914px;" id="el2hxxb746ipp" class="animable"></path><path d="M249.29149,114.1494l-1.4959-.5684s.6926,1.2628,1.4959,.5684Z" style="fill: rgb(38, 50, 56); transform-origin: 248.544px 113.969px;" id="el6fbcnnmfuv6" class="animable"></path></g><path d="M266.65829,121.0469c-.9765,1.2751-2.3821,1.9712-3.6052,2.1122-1.8397,.2118-2.3819-2.7726-1.5389-4.4766,.7591-1.534,2.649-2.3665,4.3361-1.7878,1.6619,.5701,1.9246,2.6943,.808,4.1522Z" style="fill: rgb(235, 179, 118); transform-origin: 264.231px 119.94px;" id="el1s425j4a4v7" class="animable"></path><g id="elg1qlk8jsqx"><path d="M262.68689,120.3223c.1397-.6275,.5149-1.1996,1.0348-1.5778,.5199-.378,1.1797-.5589,1.8198-.4985" style="fill: none; opacity: 0.2; stroke: rgb(0, 0, 0); stroke-linecap: round; stroke-linejoin: round; stroke-width: 0.5px; transform-origin: 264.114px 119.278px;" class="animable"></path></g><path d="M242.698,145.7318c-.61051,2.8049-4.30821,8.548,.87179,16.9784,2.5407,3.8456,3.7113,11.6563,5.0359,20.9513l29.2756-9.4827c-5.2757-6.1668-6.0268-6.5355-1.8004-30.9948,.7455-4.3146-2.4105-8.324-6.7797-8.6113-1.1676-.0767-2.4033-.1316-3.667-.1486-4.9135-.0659-8.9379-.0829-13.2364,.4604-1.4246,.1802-2.8956,.4125-4.2996,.6594-5.0664,.8912-3.7417,2.5679-5.40019,10.1879Z" style="fill: rgb(64, 123, 255); transform-origin: 259.365px 159.026px;" id="el4hcq4pwa9hi" class="animable"></path><path d="M248.09819,135.5439c-.5304,.1021-10.2356,12.9703-3.0157,30.3169l.624,1.913s-7.3352-6.2949-6.9914-16.9818,4.0055-13.7574,6.4198-15.2481,2.9633,0,2.9633,0Z" style="fill: rgb(38, 50, 56); transform-origin: 243.401px 151.328px;" id="elj652s0ewjg" class="animable"></path><g id="elzcc4an6cb6"><path d="M267.06629,142.8474c.1273,3.6661,4.2721,9.4202,7.10571,12.1261,.30289-2.5808,.82829-4.1865,1.31989-7.2593l-8.4256-4.8668Z" style="opacity: 0.2; transform-origin: 271.279px 148.91px;" class="animable"></path></g><g id="el9rds9oi18i6"><path d="M238.27719,114.866c-.2043,.8176,.2929,1.646,1.1105,1.8504,.8176,.2043,1.6461-.2929,1.8504-1.1105,.2043-.8177-.293-1.6461-1.1106-1.8504s-1.646,.2929-1.8503,1.1105Z" style="fill: rgb(64, 123, 255); opacity: 0.3; transform-origin: 239.758px 115.236px;" class="animable"></path></g><g id="el01ed6z9max34"><path d="M238.08709,85.3321c-.4916,1.9674,.7048,3.9609,2.6723,4.4525,1.9675,.4917,3.961-.7047,4.4527-2.6723,.4915-1.9674-.7049-3.9609-2.6723-4.4526-1.9676-.4916-3.9611,.7048-4.4527,2.6724Z" style="fill: rgb(64, 123, 255); opacity: 0.3; transform-origin: 241.65px 86.2222px;" class="animable"></path></g><g id="ell3peujy16om"><path d="M233.27719,108.5154c-.1113,.4458,.15981,.8974,.6055,1.0087,.4458,.1115,.8974-.1596,1.0088-.6054,.1114-.4457-.1597-.8974-.6054-1.0088-.4458-.1114-.8974,.1597-1.0089,.6055Z" style="fill: rgb(64, 123, 255); opacity: 0.3; transform-origin: 234.084px 108.717px;" class="animable"></path></g><g id="el6u5lcbzbine"><path d="M246.75889,96.9833c-.1113,.4458,.1597,.8974,.6055,1.0088,.4457,.1114,.8974-.1597,1.0088-.6054,.1113-.4458-.1597-.8974-.6055-1.0089-.44569-.1113-.8974,.1598-1.0088,.6055Z" style="fill: rgb(64, 123, 255); opacity: 0.3; transform-origin: 247.566px 97.185px;" class="animable"></path></g><g id="eltfj88t527us"><path d="M237.11589,101.2244c-.399,1.5966,.5719,3.2143,2.1685,3.6133,1.59661,.399,3.2143-.572,3.6133-2.1685,.3989-1.5966-.572-3.2144-2.1686-3.6133-1.5966-.399-3.2143,.5719-3.6132,2.1685Z" style="fill: rgb(64, 123, 255); opacity: 0.3; transform-origin: 240.007px 101.947px;" class="animable"></path></g><g id="eljh17ekgqrwk"><path d="M226.912,91.6183c-.68771,2.7518,.98569,5.54,3.73749,6.2276,2.7519,.6876,5.5401-.9857,6.2277-3.7376,.6876-2.7518-.9858-5.54-3.7376-6.2276s-5.54,.9858-6.22759,3.7376Z" style="fill: rgb(64, 123, 255); opacity: 0.3; transform-origin: 231.895px 92.8633px;" class="animable"></path></g><path d="M269.06889,116.2576c-.6843-.4603-1.3943-.7818-2.124-1.0907-.732-.2876-1.4828-.5285-2.2523-.7065-.7672-.193-1.5585-.2942-2.3614-.356-.4047-.0115-.8086-.0382-1.2214-.0105-.2054,.0091-.41,.0131-.6191,.0401-.1033,.0224-.2094-.0046-.3104,.0584-.0491,.0491-.0958,.1309-.1349,.2997-.0439,.1015-.0726,.3875-.1001,.6448-.0361,.3375-.3519,.6807-.2715,.982l.3568,.0317c.0667,.2466-.5092,.6982-.4585,.789,.0554,.1582,.1963,.3623,.79,.0908,.0881,.0418,.1706-.0066,.2561-.0058,.1683-.0266,.3427-.0326,.5159-.0436,.3443-.0279,.6967-.0384,1.0485-.0472,.7076-.0109,1.4232,.0092,2.1497,.0317,.7244,.0385,1.4578,.078,2.1962,.134,.7403,.0374,1.4904,.1121,2.24151,.1349l.02029,.0009c.256,.0078,.4772-.2206,.4938-.5101,.0111-.1985-.0767-.3743-.2152-.4676Z" style="fill: rgb(38, 50, 56); transform-origin: 264.427px 115.659px;" id="el7fgnn87u8qx" class="animable"></path><g id="elhh3dile92p7" class="animable" style="transform-origin: 202.405px 145.133px;"><path d="M209.59079,149.7161s1.2621-2.2406,.6661-4.2819c-.5958-2.0413-.5284-3.8298-1.0763-5.3167-.5478-1.4869-1.3001,.5152-1.4849,1.6613-.1846,1.146-.4056,2.4433-1.2439,2.1652-.8384-.2777-5.9047-5.9383-7.1109-6.1912-1.2062-.2532-.6731,.9187-.6731,.9187,0,0-1.2675-1.3416-1.93579-.9843-.1734,.0928-.4266,.5901,.0551,1.2921,1.0839,1.5791,3.5292,4.7761,3.5292,4.7761-.1365-.1864-3.4367-3.9168-4.0038-4.4111-.7415-.6459-1.4203-.5724-1.7808-.1303-.513,.6291,3.4211,5.3938,3.4464,5.7107,0,0-2.17309-2.8188-3.2077-2.6561-1.0346,.1628,.2365,2.0119,1.6671,3.4295,1.3114,1.2993,3.5437,4.192,5.0051,5.3835,1.8006,1.4684,3.3395,2.0499,5.29141,1.082,1.952-.9681,2.85679-2.4475,2.85679-2.4475Z" style="fill: rgb(38, 50, 56); transform-origin: 202.405px 145.133px;" id="elzyh7bgb8fnh" class="animable"></path><g id="elqhtv37vtduq"><path d="M198.81949,138.8352c.9888,1.1007,1.9274,2.2465,2.812,3.4326" style="fill: none; opacity: 0.3; stroke: rgb(0, 0, 0); stroke-linecap: round; stroke-linejoin: round; stroke-width: 0.25px; transform-origin: 200.225px 140.552px;" class="animable"></path></g><g id="elch339gtb5q"><path d="M198.73549,146.0687c1.0367-1.6058,2.5556-2.8958,4.3081-3.6589" style="fill: none; opacity: 0.3; stroke: rgb(0, 0, 0); stroke-linecap: round; stroke-linejoin: round; stroke-width: 0.25px; transform-origin: 200.89px 144.239px;" class="animable"></path></g><g id="eld2t7cb7uz6k"><path d="M206.20639,144.8974c-.4958,.6007-.774,1.3772-.77239,2.1561,.00159,.7788,.283,1.5542,.78129,2.1528" style="fill: none; opacity: 0.3; stroke: rgb(0, 0, 0); stroke-linecap: round; stroke-linejoin: round; stroke-width: 0.25px; transform-origin: 205.825px 147.052px;" class="animable"></path></g></g><path d="M264.84969,116.2396c1.93031,0,1.9335-3,0-3-1.9304,0-1.9336,3,0,3h0Z" style="fill: rgb(38, 50, 56); transform-origin: 264.85px 114.74px;" id="el0mbhmhji5mdb" class="animable"></path><path d="M254.57159,122.7014c-.8375-1.3799-2.8862-4.7486-4.5181-4.8871-1.6318-.1385-3.7089,3.0768-3.9777,5.2391-.2217,1.7823-.4255,5.6646,4.4476,6.2363,4.8732,.5718,5.3841-4.3871,4.0482-6.5883Z" style="fill: rgb(38, 50, 56); transform-origin: 250.596px 123.573px;" id="elnyulfwr1d3p" class="animable"></path><path d="M246.25119,169.8518c-.62119,.1571,14.0257,2.5619,27.1999-3.991,0,0,.0842,2.078,1.5114,4.61,0,0-8.3877,8.5214-27.5977,5.0012l-1.1136-5.6202Z" style="fill: rgb(38, 50, 56); transform-origin: 260.597px 171.093px;" id="eldprqiqiwlft" class="animable"></path><g id="elxg5pze3vokc"><path d="M250.50429,157.4843s3.9015,4.649,8.861,5.201c0,0-6.2159,.4859-8.861-5.201Z" style="opacity: 0.2; transform-origin: 254.935px 160.09px;" class="animable"></path></g><path d="M264.71439,134.3915c-.6499,.3596-5.73539,3.9976-3.5875,10.6378,2.148,6.6402,12.5318,13.9972,12.5318,13.9972l.76231-5.7511s-8.97771-4.599-9.58311-9.8062c-.6895-5.93,3.5759-9.0777,3.5759-9.0777,0,0-1.3475-1.3016-3.6994,0Z" style="fill: rgb(38, 50, 56); transform-origin: 267.511px 146.42px;" id="elqb1p62yhwp" class="animable"></path><path d="M261.62709,122.4348c.7358-2.4929,1.0598-5.3233,1.0598-5.3233,.5354-3.1439-2.1807-9.4981-7.63589-10.1696-5.45511-.6714-6.95281,1.7751-6.95281,1.7751,.1044-1.3464,3.3584-4.1897,7.38681-4.7398,4.02839-.5502,5.424,.7002,7.20189,1.4003,1.7779,.7002,5.8704,7.4519,5.8704,7.4519,0,0-.0464,3.0508-.6465,6.7017-.6002,3.6509-4.1785,5.8274-5.6429,6.9013-1.521,1.1153-4.4433,3.4743-8.4597,3.8516s-7.4797-.1758-8.2188-4.5681c0,0,2.7594,3.2285,6.3932,3.0034,7.6698-.475,9.6445-6.2845,9.6445-6.2845Z" style="fill: rgb(38, 50, 56); transform-origin: 257.073px 117.111px;" id="els1yym7ns76" class="animable"></path><g id="elh2gf67lyvdv"><path d="M254.57159,122.7014c-.8375-1.3799-2.8862-4.7486-4.5181-4.8871-1.6318-.1385-3.7089,3.0768-3.9777,5.2391-.2217,1.7823-.4255,5.6646,4.4476,6.2363,4.8732,.5718,5.3841-4.3871,4.0482-6.5883Z" style="fill: rgb(255, 255, 255); opacity: 0.2; transform-origin: 250.596px 123.573px;" class="animable"></path></g><path d="M248.93129,124.9849c-2.2609,2.4148-3.3056,5.7471-2.71029,9.0175,.63279,3.4763,3.41429,5.7814,6.98859,5.5927,3.3819-.1785,6.37041-2.8547,7.6078-5.9022,.711-1.7513,1.0174-3.7506,2.2421-5.2476,1.0977-1.3419,2.6559-2.261,4.2164-2.9677,2.183-.9886,5.0127-1.7868,7.259-.5036,.4209,.2405,1.2275,.7981,1.0615,1.381-.0738,.2593-.5586,.5869-.75,.7412-.538,.4334-1.1341,.8165-1.7456,1.1372-.8552,.4485-.0979,1.7436,.7571,1.2952,1.8826-.9873,4.5786-2.9064,2.4285-5.1022-2.6016-2.6569-7.022-1.5317-9.9365-.1666-1.5055,.7052-2.9814,1.6133-4.1111,2.8497-1.1425,1.2503-1.6972,2.7639-2.2191,4.3471-.6592,1.9995-1.4415,3.6195-3.0815,5.008-1.7117,1.4493-3.8744,2.0546-6.0431,1.3166-4.9447-1.6826-3.7072-8.7407-.9032-11.7356,.6593-.7043-.3992-1.7672-1.0606-1.0607h0Z" style="fill: rgb(38, 50, 56); transform-origin: 261.568px 131.21px;" id="el3v3k95ldk5y" class="animable"></path><g id="elx36vpe0clb9"><g style="opacity: 0.2; transform-origin: 261.568px 131.21px;" class="animable"><path d="M248.93129,124.9849c-2.2609,2.4148-3.3056,5.7471-2.71029,9.0175,.63279,3.4763,3.41429,5.7814,6.98859,5.5927,3.3819-.1785,6.37041-2.8547,7.6078-5.9022,.711-1.7513,1.0174-3.7506,2.2421-5.2476,1.0977-1.3419,2.6559-2.261,4.2164-2.9677,2.183-.9886,5.0127-1.7868,7.259-.5036,.4209,.2405,1.2275,.7981,1.0615,1.381-.0738,.2593-.5586,.5869-.75,.7412-.538,.4334-1.1341,.8165-1.7456,1.1372-.8552,.4485-.0979,1.7436,.7571,1.2952,1.8826-.9873,4.5786-2.9064,2.4285-5.1022-2.6016-2.6569-7.022-1.5317-9.9365-.1666-1.5055,.7052-2.9814,1.6133-4.1111,2.8497-1.1425,1.2503-1.6972,2.7639-2.2191,4.3471-.6592,1.9995-1.4415,3.6195-3.0815,5.008-1.7117,1.4493-3.8744,2.0546-6.0431,1.3166-4.9447-1.6826-3.7072-8.7407-.9032-11.7356,.6593-.7043-.3992-1.7672-1.0606-1.0607h0Z" style="fill: rgb(255, 255, 255); transform-origin: 261.568px 131.21px;" id="el9xm6ohx99i" class="animable"></path></g></g><g id="elk7yhi4ifnz9" class="animable" style="transform-origin: 267.432px 125.716px;"><path d="M269.66039,125.7159c0,1.2306-.9976,2.2282-2.2281,2.2282-1.2306,0-2.2282-.9976-2.2282-2.2282,0-1.2305,.9976-2.2281,2.2282-2.2281,1.2305,0,2.2281,.9976,2.2281,2.2281Z" style="fill: rgb(38, 50, 56); transform-origin: 267.432px 125.716px;" id="els8axreunof" class="animable"></path><path d="M269.289,125.7159c0,1.0255-.83131,1.8568-1.85671,1.8568-1.0255,0-1.8568-.8313-1.8568-1.8568,0-1.0254,.8313-1.8567,1.8568-1.8567,1.0254,0,1.85671,.8313,1.85671,1.8567Z" style="fill: rgb(64, 123, 255); transform-origin: 267.432px 125.716px;" id="elq1j1t7vr2lo" class="animable"></path></g><g id="el11rmwco9itri"><rect x="267.75246" y="127.44682" width="1.18296" height="1.44675" style="fill: rgb(38, 50, 56); transform-origin: 268.344px 128.17px; transform: rotate(-20.382deg);" class="animable"></rect></g><path d="M241.28169,150.3627s9.5652-2.8152,21.6248-1.8336l-.7693-4.7283s-12.4581-1.0382-20.3186,1.7797l-.5369,4.7822Z" style="fill: rgb(38, 50, 56); transform-origin: 252.094px 146.988px;" id="elb57e8p7gg9b" class="animable"></path><rect x="251.11919" y="169.2235" width="7.6313" height="7.6313" style="fill: rgb(38, 50, 56); transform-origin: 254.935px 173.039px;" id="eluwijpl0kbw" class="animable"></rect><g id="elpwcav5djikc"><path d="M269.06889,116.2576c-.6843-.4603-1.3943-.7818-2.124-1.0907-.732-.2876-1.4828-.5285-2.2523-.7065-.7672-.193-1.5585-.2942-2.3614-.356-.4047-.0115-.8086-.0382-1.2214-.0105-.2054,.0091-.41,.0131-.6191,.0401-.1033,.0224-.2094-.0046-.3104,.0584-.0491,.0491-.0958,.1309-.1349,.2997-.0439,.1015-.0726,.3875-.1001,.6448-.0361,.3375-.3519,.6807-.2715,.982l.3568,.0317c.0667,.2466-.5092,.6982-.4585,.789,.0554,.1582,.1963,.3623,.79,.0908,.0881,.0418,.1706-.0066,.2561-.0058,.1683-.0266,.3427-.0326,.5159-.0436,.3443-.0279,.6967-.0384,1.0485-.0472,.7076-.0109,1.4232,.0092,2.1497,.0317,.7244,.0385,1.4578,.078,2.1962,.134,.7403,.0374,1.4904,.1121,2.24151,.1349l.02029,.0009c.256,.0078,.4772-.2206,.4938-.5101,.0111-.1985-.0767-.3743-.2152-.4676Z" style="fill: rgb(255, 255, 255); opacity: 0.2; transform-origin: 264.427px 115.659px;" class="animable"></path></g><g id="elyh49an4i2dh" class="animable" style="transform-origin: 252.236px 114.649px;"><g id="elz317jwtcamo"><path d="M258.29039,111.6929c.9332,.3446,1.5842,1.1861,1.705,2.1736,.4851,3.9659-1.2687,5.1358-4.0869,5.0003-3.1102-.1496-3.9141-1.9027-5.8222-2.2918-1.9082-.3892-4.136,2.1988-5.0787,1.0262-.991-1.2327-.8319-5.3135,.91241-6.6006,1.45089-1.0704,8.96149-.566,12.37039,.6923Z" style="fill: rgb(64, 123, 255); opacity: 0.5; transform-origin: 252.237px 114.647px;" class="animable"></path></g><path d="M244.67829,117.866c-.5908-.7348-.83929-2.2368-.6331-3.8266,.1987-1.5323,.7906-2.7639,1.6239-3.3788,1.6255-1.1994,9.316-.6384,12.7677,.6359h0c1.0788,.3983,1.8368,1.3634,1.9781,2.5187,.2468,2.0174-.047,3.4432-.898,4.3593-.7711,.8302-1.9582,1.1947-3.6286,1.1144-1.973-.095-3.07229-.7989-4.0424-1.4201-.6192-.3966-1.1532-.7388-1.8442-.8797-.7628-.1557-1.6793,.2996-2.48769,.7013-.76791,.3814-1.55481,.7724-2.19941,.6046-.2332-.0608-.448-.1948-.6363-.429Zm7.6234-.709c.92431,.5918,1.8798,1.2036,3.6271,1.2877,1.4066,.0676,2.3776-.209,2.969-.8454,.6616-.7124,.8897-1.951,.6781-3.6815-.1026-.8397-.6513-1.5402-1.43189-1.8284h0c-3.31581-1.2241-10.70241-1.6862-11.97311-.7487-.6491,.4789-1.1183,1.5022-1.2875,2.8075-.1698,1.3092,.0209,2.6501,.4537,3.1883,.2636,.3279,.8561,.0662,1.8007-.4031,.9305-.4622,1.9853-.9862,3.0329-.7725,.0734,.015,.145,.0316,.2154,.0499,.7378,.1921,1.3115,.5593,1.9156,.9462Z" style="fill: rgb(38, 50, 56); transform-origin: 252.236px 114.649px;" id="elrvnjfdps4zh" class="animable"></path></g><path d="M204.36269,152.3349l5.6808,4.9511s4.2736-4.3257,4.63851-6.4104l-5.15961-2.8665-5.1597,4.3258Z" style="fill: rgb(38, 50, 56); transform-origin: 209.522px 152.648px;" id="ely13bwwmhc4q" class="animable"></path><g id="elnxbixtbcfkj" class="animable" style="transform-origin: 285.074px 168.152px;"><path d="M270.89579,134.896s-7.4412,2.938-3.6149,8.7242c2.086,3.1544,20.7849,13.4095,21.214,13.702,.4292,.2925,6.2648,26.2475,6.2648,26.2475l6.4667,1.005s-1.8982-24.1089-3.8653-30.2172c-1.96709-6.1084-17.9244-15.5076-21.0426-17.4283-2.426-1.4943-4.4318-1.8976-5.2027-2.0031-.22-.0301-.3395-.0359-.3395-.0359" style="fill: rgb(64, 123, 255); transform-origin: 283.707px 159.732px;" id="elrrbuo6s7sy" class="animable"></path><g id="elv4hgzfpaao" class="animable" style="transform-origin: 296.916px 192.349px;"><path d="M295.35909,183.6986s-2.3836,1.0882-3.1173,3.1269c-.7339,2.0385-1.8623,3.4711-2.303,5.0243-.44079,1.5533,1.3798,.3557,2.2195-.4774,.8396-.8331,1.7998-1.7689,2.3234-1.037,.5239,.7317,1.3006,8.4328,2.14231,9.3647,.84149,.9322,1.10539-.3528,1.10539-.3528,0,0,.2391,1.8653,1.0039,1.9719,.1985,.0276,.7054-.2301,.72971-1.0972,.05459-1.9508-.04141-6.0506-.04141-6.0506,.0006,.2353,.4807,5.2874,.6513,6.0347,.2232,.9767,.8263,1.3235,1.3884,1.1757,.7999-.2104,.4182-6.4946,.5874-6.7708,0,0,.0987,3.6252,1.0485,4.1119,.94981,.4865,1.0121-1.7989,.6843-3.8246-.3006-1.8568-.4038-5.5783-.89249-7.4363-.60211-2.2895-1.52071-3.6916-3.70891-4.0654-2.1884-.3737-3.821,.302-3.821,.302Z" style="fill: rgb(38, 50, 56); transform-origin: 296.916px 192.349px;" id="eltxwgk54ori" class="animable"></path><g id="elzeobthp9bjm"><path d="M297.70269,199.1215c-.1541-1.4997-.23969-3.0065-.25669-4.514" style="fill: none; opacity: 0.3; stroke: rgb(0, 0, 0); stroke-linecap: round; stroke-linejoin: round; stroke-width: 0.25px; transform-origin: 297.574px 196.865px;" class="animable"></path></g></g><path d="M294.46609,184.5747s-1.2414-7.8171-1.2414-7.7716c0,.5471,7.9918-.4787,7.9918-.4787l.0702,9.259-6.8206-1.0087Z" style="fill: rgb(38, 50, 56); transform-origin: 297.256px 180.954px;" id="elakr3fnyoyin" class="animable"></path></g><g id="elo59bn3ubkrc"><path d="M267.55909,299.3763l1.7758-.14c1.4845,2.6303,10.2008,4.8287,8.2596,11.0834-1.7128,5.5202-14.0291,23.9616-11.9382,37.5819,.3545,2.3088-1.8634,4.1653-4.0584,3.3663-6.9341-2.5239-17.6548-7.8072-17.2177-16.2452,.46781-9.0282,18.1134-14.1382,19.7654-32.2619,.1649-1.8092,1.60241-3.2417,3.4135-3.3845Z" style="opacity: 0.3; transform-origin: 261.121px 325.346px;" class="animable"></path></g></g><g id="elnfhr0g915tk" class="animable" style="transform-origin: 255.257px 215.853px;"><g id="elik5kdean6js" class="animable" style="transform-origin: 255.257px 215.853px;"><rect x="138.7329" y="64.1741" width="233.04729" height="9.4906" style="fill: rgb(38, 50, 56); transform-origin: 255.257px 68.9194px;" id="eloylv8iaaiqb" class="animable"></rect><rect x="138.7329" y="358.0418" width="233.04729" height="9.4906" style="fill: rgb(38, 50, 56); transform-origin: 255.257px 362.787px;" id="elkroi8deeqwb" class="animable"></rect><rect x="138.7329" y="68.9194" width="6.0193" height="293.8677" style="fill: rgb(38, 50, 56); transform-origin: 141.743px 215.853px;" id="el6cezal9txk6" class="animable"></rect><rect x="214.17819" y="68.9194" width="6.0194" height="293.8677" style="fill: rgb(38, 50, 56); transform-origin: 217.188px 215.853px;" id="elhst9g02zg4" class="animable"></rect><rect x="289.62359" y="68.9194" width="6.01941" height="293.8677" style="fill: rgb(38, 50, 56); transform-origin: 292.633px 215.853px;" id="elwpmau3l51cb" class="animable"></rect><rect x="365.069" y="68.9194" width="6.01939" height="293.8677" style="fill: rgb(38, 50, 56); transform-origin: 368.079px 215.853px;" id="el8v9tqyqhxt" class="animable"></rect><rect x="144.6035" y="134.0824" width="223.3265" height="2.1124" style="fill: rgb(38, 50, 56); transform-origin: 256.267px 135.139px;" id="elvpcu72grrc" class="animable"></rect><rect x="144.6035" y="210.4712" width="223.3265" height="2.1124" style="fill: rgb(38, 50, 56); transform-origin: 256.267px 211.527px;" id="el9tzxkjixmo5" class="animable"></rect><rect x="144.6035" y="286.86" width="223.3265" height="2.1125" style="fill: rgb(38, 50, 56); transform-origin: 256.267px 287.916px;" id="elc6kmgoxil2p" class="animable"></rect></g><g id="elvs4red983qd"><path d="M371.78009,73.6647v-9.4906H138.7329V367.5325h233.04719v-9.4907h-.6917V73.6647h.6917Zm-6.71109,213.1953h-69.426v-74.2764h69.426v74.2764Zm-144.87141,0v-74.2764h69.426v74.2764h-69.426Zm69.426,2.1124v69.0694h-69.426v-69.0694h69.426ZM144.7522,136.1948h69.426v74.2764h-69.426v-74.2764Zm0,76.3888h69.426v74.2764h-69.426v-74.2764Zm220.3168-2.1124h-69.426v-74.2764h69.426v74.2764Zm-75.44541,0h-69.426v-74.2764h69.426v74.2764Zm-69.426-76.3889v-60.4176h69.426v60.4176h-69.426Zm-6.0194-60.4176v60.4176h-69.426v-60.4176h69.426Zm-69.426,215.3077h69.426v69.0694h-69.426v-69.0694Zm150.8908,69.0694v-69.0694h69.426v69.0694h-69.426Zm69.426-223.9595h-69.426v-60.4176h69.426v60.4176Z" style="fill: rgb(255, 255, 255); opacity: 0.8; transform-origin: 255.256px 215.853px;" class="animable"></path></g></g><g id="elqcby0kpoosp" class="animable" style="transform-origin: 253.522px 61.7572px;"><rect x="178.0771" y="59.3403" width="150.8907" height="4.8338" style="fill: rgb(38, 50, 56); transform-origin: 253.522px 61.7572px;" id="elqi1cblts2om" class="animable"></rect><g id="elkhjkltl7wd"><rect x="178.0771" y="59.3403" width="150.8907" height="4.8338" style="fill: rgb(255, 255, 255); opacity: 0.4; transform-origin: 253.522px 61.7572px;" class="animable"></rect></g></g><rect x="196.2206" y="31.8936" width="4.1148" height="27.4467" style="fill: rgb(38, 50, 56); transform-origin: 198.278px 45.617px;" id="el25e35h38uwy" class="animable"></rect><rect x="203.34539" y="31.8936" width="4.1147" height="27.4467" style="fill: rgb(38, 50, 56); transform-origin: 205.403px 45.617px;" id="elmrlgh51thr" class="animable"></rect><rect x="309.423" y="31.8936" width="4.11469" height="27.4467" style="fill: rgb(38, 50, 56); transform-origin: 311.48px 45.617px;" id="elom7m025zomo" class="animable"></rect><rect x="316.54769" y="31.8936" width="4.1148" height="27.4467" style="fill: rgb(38, 50, 56); transform-origin: 318.605px 45.617px;" id="elypog32jga3p" class="animable"></rect></g></g><g id="freepik--Shark--inject-60" class="animable" style="transform-origin: 269.529px 301.615px;"><g id="els9scfwovlwb" class="animable" style="transform-origin: 269.529px 301.615px;"><path d="M281.37859,269.6562s11.5091-23.2314,10.6566-35.1667c-.8525-11.9354-4.0495-32.3961-2.3444-32.6092,1.705-.2131,20.0343,1.7051,28.7728,24.9364,8.73841,23.2314,9.6027,33.0134,9.6027,33.0134l-46.6877,9.8261Z" style="fill: rgb(64, 123, 255); transform-origin: 304.722px 235.761px;" id="elhuoh2o8b2v" class="animable"></path><g id="elt2q2bjx19xe"><path d="M285.49689,260.4186c14.4539-3.9027,28.2897-6.8958,41.06011-8.3205,.66909,2.6735,1.21059,5.2732,1.50929,7.732l-45.74229,7.8423,3.17289-7.2538Z" style="opacity: 0.3; transform-origin: 305.195px 259.885px;" class="animable"></path></g><path d="M336.97789,354.2746s17.2145,45.8408,22.05,47.0013c4.8356,1.1605,6.7698-9.4776,8.1237-18.7618,1.354-9.2843-.9337-30.5394-.9337-30.5394l-29.24,2.2999Z" style="fill: rgb(64, 123, 255); transform-origin: 352.279px 376.669px;" id="eldd33lqxwrc5" class="animable"></path><g id="elyo9xir8ep3e"><path d="M336.97789,354.2746s17.2145,45.8408,22.05,47.0013c4.8356,1.1605,6.7698-9.4776,8.1237-18.7618,1.354-9.2843-.9337-30.5394-.9337-30.5394l-29.24,2.2999Z" style="opacity: 0.3; transform-origin: 352.279px 376.669px;" class="animable"></path></g><path d="M69.0147,240.3644s13.7346-2.6706,38.1517,30.5213c24.417,33.192,14.053,36.8276,46.5089,34.5093,22.9773-1.6412,25.5977-3.5358,25.5977-3.5358l4.9286-11.576,10.3678,8.1366s28.1965-11.3255,65.9666-24.771c37.77009-13.4455,44.25459-14.1142,95.76059-14.2086,65.4822-.12,111.0025,28.9313,113.31041,36.2441,1.54329,4.8899,2.28909,15.2607-34.718,25.9431l-14.49761,3.4337s4.9597,3.8151-2.2891,11.4455c-7.2488,7.6303-66.00229,23.654-124.7559,17.9312,0,0-54.9383,49.5972-80.8815,38.5332l45.4005-44.6374-30.5213-4.1967s-17.5498,14.8791-35.8626,15.6422c0,0,13.5659-16.7907,12.4-18.2446,0,0-28.8052-6.1725-29.9497-6.1725-1.1446,0-16.7005,14.8934-25.1801,7.2488-1.0104-.9109,5.3412-12.2085,5.3412-12.2085,0,0-12.59-7.2488-22.1279-5.7228-9.538,1.5261-22.891,33.5735-54.5569,43.8744,0,0,22.128-40.8222,18.3128-57.2274s-28.6137-63.7133-26.7062-70.9621Z" style="fill: rgb(64, 123, 255); transform-origin: 269.529px 317.447px;" id="elw9rkn9nhx48" class="animable"></path><g id="elstojkzu8z1a" class="animable" style="transform-origin: 329.226px 308.292px;"><path d="M320.28879,294.7905c-4.87,9.5172-6.395,20.0726-3.739,30.4818-6.9333-8.959-4.9251-23.3547,3.739-30.4818h0Z" style="fill: rgb(38, 50, 56); transform-origin: 316.331px 310.031px;" id="ellxaggu5h8k" class="animable"></path><path d="M328.14039,293.7046c-4.8699,9.5172-6.3949,20.0727-3.739,30.4818-6.9333-8.959-4.925-23.3547,3.739-30.4818h0Z" style="fill: rgb(38, 50, 56); transform-origin: 324.183px 308.945px;" id="el17v46xjoxi" class="animable"></path><path d="M337.10919,292.5082c-4.87,9.5173-6.395,20.0727-3.739,30.4818-6.9333-8.9589-4.9251-23.3546,3.739-30.4818h0Z" style="fill: rgb(38, 50, 56); transform-origin: 333.152px 307.749px;" id="el0at8inad55ae" class="animable"></path><path d="M346.07789,291.3118c-4.86989,9.5172-6.39489,20.0727-3.739,30.4819-6.9333-8.959-4.9251-23.3547,3.739-30.4819h0Z" style="fill: rgb(38, 50, 56); transform-origin: 342.12px 306.553px;" id="ely48tjyk9ho" class="animable"></path></g><circle cx="417.91859" cy="292.7279" r="3.8602" style="fill: rgb(38, 50, 56); transform-origin: 417.919px 292.728px;" id="elysixnpxppv" class="animable"></circle><g id="elm10r3muj1ym" class="animable" style="transform-origin: 299.669px 328.751px;"><g id="elpet56eax79"><path d="M460.732,311.2058c-1.42761-7.0656-27.15281-13.6614-63.89351-5.76-38.9548,8.3777-73.9318,27.0059-86.39149,33.1913-3.57711,1.7758-17.10051,15.8007-17.10051,15.8007,58.75351,5.7228,117.507-10.3009,124.7558-17.9312,7.2488-7.6304,2.2891-11.4455,2.2891-11.4455l14.4977-3.4337c12.379-3.5733,20.5293-7.1114,25.84291-10.4216Z" style="fill: rgb(255, 255, 255); opacity: 0.7; transform-origin: 377.039px 328.751px;" class="animable"></path></g><g id="ele2au4tp6i1r"><path d="M257.86539,348.3336l6.7194-6.981-29.2517-1.0531c-2.1744-.0782-4.2983,.6658-5.9485,2.0839l-2.0405,1.7535,30.5213,4.1967Z" style="fill: rgb(255, 255, 255); opacity: 0.7; transform-origin: 245.964px 344.314px;" class="animable"></path></g><g id="elgw51v8ikxwb"><path d="M203.88149,341.5345s3.2617-2.5855,1.8091-4.2457c-1.45259-1.6601-24.4871-6.018-28.6374-4.3579-4.1504,1.6602-3.1214,2.4311-3.1214,2.4311l29.9497,6.1725Z" style="fill: rgb(255, 255, 255); opacity: 0.7; transform-origin: 189.941px 337.047px;" class="animable"></path></g><g id="el5lrts89f7si"><path d="M154.0929,330.4023l1.8048-3.1414-17.2907-2.4736s12.9879,4.5107,15.4859,5.615Z" style="fill: rgb(255, 255, 255); opacity: 0.7; transform-origin: 147.252px 327.595px;" class="animable"></path></g></g><g id="eldroum2iww7"><path d="M375.45639,316.7671c-.7598,.0322,33.9398-10.671,58.6007,5.0574l-13.6657,3.2366s-4.8483-9.9911-44.935-8.294Z" style="opacity: 0.3; transform-origin: 404.751px 319.151px;" class="animable"></path></g></g></g><defs>     <filter id="active" height="200%">         <feMorphology in="SourceAlpha" result="DILATED" operator="dilate" radius="2"></feMorphology>                <feFlood flood-color="#32DFEC" flood-opacity="1" result="PINK"></feFlood>        <feComposite in="PINK" in2="DILATED" operator="in" result="OUTLINE"></feComposite>        <feMerge>            <feMergeNode in="OUTLINE"></feMergeNode>            <feMergeNode in="SourceGraphic"></feMergeNode>        </feMerge>    </filter>    <filter id="hover" height="200%">        <feMorphology in="SourceAlpha" result="DILATED" operator="dilate" radius="2"></feMorphology>                <feFlood flood-color="#ff0000" flood-opacity="0.5" result="PINK"></feFlood>        <feComposite in="PINK" in2="DILATED" operator="in" result="OUTLINE"></feComposite>        <feMerge>            <feMergeNode in="OUTLINE"></feMergeNode>            <feMergeNode in="SourceGraphic"></feMergeNode>        </feMerge>            <feColorMatrix type="matrix" values="0   0   0   0   0                0   1   0   0   0                0   0   0   0   0                0   0   0   1   0 "></feColorMatrix>    </filter></defs></svg>